M48
; DRILL file {KiCad 7.0.10} date Fri Apr 19 21:49:09 2024
; FORMAT={-:-/ absolute / inch / decimal}
; #@! TF.CreationDate,2024-04-19T21:49:09+08:00
; #@! TF.GenerationSoftware,Kicad,Pcbnew,7.0.10
; #@! TF.FileFunction,Plated,1,2,PTH
FMAT,2
INCH
; #@! TA.AperFunction,Plated,PTH,ComponentDrill
T1C0.0079
; #@! TA.AperFunction,Plated,PTH,ViaDrill
T2C0.0098
; #@! TA.AperFunction,Plated,PTH,ViaDrill
T3C0.0118
; #@! TA.AperFunction,Plated,PTH,ComponentDrill
T4C0.0236
; #@! TA.AperFunction,Plated,PTH,ComponentDrill
T5C0.0394
%
G90
G05
T1
X3.6713Y-2.748
X3.7087Y-2.7254
X3.7087Y-2.7707
X3.7461Y-2.748
T2
X3.6575Y-2.4528
X3.6969Y-3.6346
X3.7283Y-3.4606
X3.8031Y-3.4921
X3.9055Y-3.2717
X3.9094Y-3.3268
X3.9149Y-2.811
X3.9154Y-3.5138
X3.9843Y-3.315
X3.9921Y-3.3898
X3.9921Y-3.4213
T3
X2.8465Y-3.3543
X2.8465Y-3.4213
X2.8465Y-3.4882
X2.8465Y-3.5551
X2.8465Y-3.622
X2.8465Y-3.689
X2.9134Y-3.3543
X2.9134Y-3.4213
X2.9134Y-3.4882
X2.9134Y-3.5551
X2.9134Y-3.622
X2.9134Y-3.689
X2.9803Y-3.3543
X2.9803Y-3.4213
X2.9803Y-3.4882
X2.9803Y-3.5551
X2.9803Y-3.622
X2.9803Y-3.689
X3.0472Y-3.3543
X3.0472Y-3.4213
X3.0472Y-3.4882
X3.0472Y-3.5551
X3.0472Y-3.622
X3.0472Y-3.689
X3.1142Y-2.1969
X3.1142Y-3.3543
X3.1142Y-3.4213
X3.1142Y-3.4882
X3.1142Y-3.5551
X3.1142Y-3.622
X3.1142Y-3.689
X3.1496Y-2.9055
X3.1496Y-3.1457
X3.1811Y-3.3543
X3.1811Y-3.4213
X3.1811Y-3.4882
X3.1811Y-3.5551
X3.1811Y-3.622
X3.1811Y-3.689
X3.2283Y-2.5
X3.2441Y-2.748
X3.2441Y-2.9173
X3.248Y-3.1102
X3.248Y-3.3543
X3.248Y-3.4213
X3.248Y-3.4882
X3.248Y-3.5551
X3.248Y-3.622
X3.248Y-3.689
X3.252Y-3.185
X3.315Y-3.3543
X3.315Y-3.4213
X3.315Y-3.4882
X3.315Y-3.5551
X3.315Y-3.622
X3.315Y-3.689
X3.3189Y-2.6496
X3.3465Y-3.1063
X3.3465Y-3.2913
X3.3819Y-3.3543
X3.3819Y-3.4213
X3.3819Y-3.4882
X3.3819Y-3.5551
X3.3819Y-3.622
X3.3819Y-3.689
X3.3858Y-3.063
X3.4134Y-2.1772
X3.4488Y-3.3543
X3.4488Y-3.4213
X3.4488Y-3.4882
X3.4488Y-3.5551
X3.4488Y-3.622
X3.4488Y-3.689
X3.4961Y-2.9897
X3.5157Y-3.3543
X3.5157Y-3.4213
X3.5157Y-3.4882
X3.5157Y-3.5551
X3.5157Y-3.622
X3.5157Y-3.689
X3.5394Y-2.3583
X3.5394Y-2.5354
X3.5472Y-2.6811
X3.5984Y-3.4921
X3.6012Y-3.3161
X3.6024Y-2.7362
X3.626Y-2.3976
X3.626Y-2.5157
X3.626Y-2.6929
X3.6378Y-2.8504
X3.6457Y-2.3661
X3.6496Y-3.3346
X3.6496Y-3.4055
X3.6654Y-3.0945
X3.6693Y-3.1811
X3.6772Y-2.8543
X3.685Y-2.4843
X3.7087Y-2.6417
X3.7244Y-2.0591
X3.7283Y-2.4803
X3.7874Y-2.4685
X3.7913Y-2.8386
X3.8701Y-2.5669
X3.8898Y-2.8937
X3.8937Y-2.2087
X3.9016Y-3.1772
X3.9055Y-2.4094
X3.9291Y-2.378
X4.0Y-2.4961
X4.0827Y-2.0787
X4.1732Y-2.9449
X4.1772Y-3.1142
X4.2126Y-3.0315
X4.437Y-2.5591
X4.4606Y-2.9921
T5
X4.0482Y-2.7323
X4.1482Y-2.7323
X4.525Y-2.555
X4.525Y-2.655
X4.525Y-2.755
X4.525Y-2.855
X4.525Y-2.955
X4.525Y-3.055
T4
G00X2.9213Y-2.8449
M15
G01X2.8898Y-2.8449
M16
G05
G00X2.9213Y-3.185
M15
G01X2.8898Y-3.185
M16
G05
G00X3.0917Y-2.8449
M15
G01X3.0484Y-2.8449
M16
G05
G00X3.0917Y-3.185
M15
G01X3.0484Y-3.185
M16
G05
M30
