%TF.GenerationSoftware,KiCad,Pcbnew,7.0.10*%
%TF.CreationDate,2024-04-19T21:49:06+08:00*%
%TF.ProjectId,MyProject1_4,4d795072-6f6a-4656-9374-315f342e6b69,rev?*%
%TF.SameCoordinates,Original*%
%TF.FileFunction,Copper,L1,Top*%
%TF.FilePolarity,Positive*%
%FSLAX46Y46*%
G04 Gerber Fmt 4.6, Leading zero omitted, Abs format (unit mm)*
G04 Created by KiCad (PCBNEW 7.0.10) date 2024-04-19 21:49:06*
%MOMM*%
%LPD*%
G01*
G04 APERTURE LIST*
G04 Aperture macros list*
%AMRoundRect*
0 Rectangle with rounded corners*
0 $1 Rounding radius*
0 $2 $3 $4 $5 $6 $7 $8 $9 X,Y pos of 4 corners*
0 Add a 4 corners polygon primitive as box body*
4,1,4,$2,$3,$4,$5,$6,$7,$8,$9,$2,$3,0*
0 Add four circle primitives for the rounded corners*
1,1,$1+$1,$2,$3*
1,1,$1+$1,$4,$5*
1,1,$1+$1,$6,$7*
1,1,$1+$1,$8,$9*
0 Add four rect primitives between the rounded corners*
20,1,$1+$1,$2,$3,$4,$5,0*
20,1,$1+$1,$4,$5,$6,$7,0*
20,1,$1+$1,$6,$7,$8,$9,0*
20,1,$1+$1,$8,$9,$2,$3,0*%
G04 Aperture macros list end*
%TA.AperFunction,SMDPad,CuDef*%
%ADD10RoundRect,0.150000X-0.625000X0.150000X-0.625000X-0.150000X0.625000X-0.150000X0.625000X0.150000X0*%
%TD*%
%TA.AperFunction,SMDPad,CuDef*%
%ADD11RoundRect,0.250000X-0.650000X0.350000X-0.650000X-0.350000X0.650000X-0.350000X0.650000X0.350000X0*%
%TD*%
%TA.AperFunction,SMDPad,CuDef*%
%ADD12RoundRect,0.218750X-0.256250X0.218750X-0.256250X-0.218750X0.256250X-0.218750X0.256250X0.218750X0*%
%TD*%
%TA.AperFunction,SMDPad,CuDef*%
%ADD13RoundRect,0.140000X0.140000X0.170000X-0.140000X0.170000X-0.140000X-0.170000X0.140000X-0.170000X0*%
%TD*%
%TA.AperFunction,SMDPad,CuDef*%
%ADD14RoundRect,0.225000X-0.225000X-0.250000X0.225000X-0.250000X0.225000X0.250000X-0.225000X0.250000X0*%
%TD*%
%TA.AperFunction,SMDPad,CuDef*%
%ADD15RoundRect,0.150000X0.150000X0.625000X-0.150000X0.625000X-0.150000X-0.625000X0.150000X-0.625000X0*%
%TD*%
%TA.AperFunction,SMDPad,CuDef*%
%ADD16RoundRect,0.250000X0.350000X0.650000X-0.350000X0.650000X-0.350000X-0.650000X0.350000X-0.650000X0*%
%TD*%
%TA.AperFunction,SMDPad,CuDef*%
%ADD17RoundRect,0.225000X-0.250000X0.225000X-0.250000X-0.225000X0.250000X-0.225000X0.250000X0.225000X0*%
%TD*%
%TA.AperFunction,SMDPad,CuDef*%
%ADD18RoundRect,0.030000X0.220000X-0.580000X0.220000X0.580000X-0.220000X0.580000X-0.220000X-0.580000X0*%
%TD*%
%TA.AperFunction,SMDPad,CuDef*%
%ADD19RoundRect,0.218750X0.218750X0.256250X-0.218750X0.256250X-0.218750X-0.256250X0.218750X-0.256250X0*%
%TD*%
%TA.AperFunction,SMDPad,CuDef*%
%ADD20RoundRect,0.200000X-0.275000X0.200000X-0.275000X-0.200000X0.275000X-0.200000X0.275000X0.200000X0*%
%TD*%
%TA.AperFunction,SMDPad,CuDef*%
%ADD21R,0.350000X0.350000*%
%TD*%
%TA.AperFunction,SMDPad,CuDef*%
%ADD22R,0.350000X0.300000*%
%TD*%
%TA.AperFunction,SMDPad,CuDef*%
%ADD23R,0.300000X0.350000*%
%TD*%
%TA.AperFunction,SMDPad,CuDef*%
%ADD24R,0.600000X0.600000*%
%TD*%
%TA.AperFunction,SMDPad,CuDef*%
%ADD25R,0.430000X0.430000*%
%TD*%
%TA.AperFunction,SMDPad,CuDef*%
%ADD26RoundRect,0.062500X0.375000X0.062500X-0.375000X0.062500X-0.375000X-0.062500X0.375000X-0.062500X0*%
%TD*%
%TA.AperFunction,SMDPad,CuDef*%
%ADD27RoundRect,0.062500X0.062500X0.375000X-0.062500X0.375000X-0.062500X-0.375000X0.062500X-0.375000X0*%
%TD*%
%TA.AperFunction,SMDPad,CuDef*%
%ADD28R,2.100000X2.100000*%
%TD*%
%TA.AperFunction,SMDPad,CuDef*%
%ADD29R,1.150000X0.600000*%
%TD*%
%TA.AperFunction,SMDPad,CuDef*%
%ADD30R,1.150000X0.300000*%
%TD*%
%TA.AperFunction,ComponentPad*%
%ADD31O,2.100000X1.000000*%
%TD*%
%TA.AperFunction,ComponentPad*%
%ADD32RoundRect,0.250000X-0.650000X0.250000X-0.650000X-0.250000X0.650000X-0.250000X0.650000X0.250000X0*%
%TD*%
%TA.AperFunction,SMDPad,CuDef*%
%ADD33RoundRect,0.225000X0.225000X0.250000X-0.225000X0.250000X-0.225000X-0.250000X0.225000X-0.250000X0*%
%TD*%
%TA.AperFunction,SMDPad,CuDef*%
%ADD34RoundRect,0.225000X0.250000X-0.225000X0.250000X0.225000X-0.250000X0.225000X-0.250000X-0.225000X0*%
%TD*%
%TA.AperFunction,ComponentPad*%
%ADD35R,1.700000X1.700000*%
%TD*%
%TA.AperFunction,ComponentPad*%
%ADD36O,1.700000X1.700000*%
%TD*%
%TA.AperFunction,SMDPad,CuDef*%
%ADD37RoundRect,0.200000X0.200000X0.275000X-0.200000X0.275000X-0.200000X-0.275000X0.200000X-0.275000X0*%
%TD*%
%TA.AperFunction,SMDPad,CuDef*%
%ADD38RoundRect,0.150000X0.625000X-0.150000X0.625000X0.150000X-0.625000X0.150000X-0.625000X-0.150000X0*%
%TD*%
%TA.AperFunction,SMDPad,CuDef*%
%ADD39RoundRect,0.250000X0.650000X-0.350000X0.650000X0.350000X-0.650000X0.350000X-0.650000X-0.350000X0*%
%TD*%
%TA.AperFunction,SMDPad,CuDef*%
%ADD40RoundRect,0.200000X0.275000X-0.200000X0.275000X0.200000X-0.275000X0.200000X-0.275000X-0.200000X0*%
%TD*%
%TA.AperFunction,SMDPad,CuDef*%
%ADD41R,1.100000X1.800000*%
%TD*%
%TA.AperFunction,SMDPad,CuDef*%
%ADD42RoundRect,0.200000X-0.200000X-0.275000X0.200000X-0.275000X0.200000X0.275000X-0.200000X0.275000X0*%
%TD*%
%TA.AperFunction,SMDPad,CuDef*%
%ADD43RoundRect,0.050000X-0.050000X0.225000X-0.050000X-0.225000X0.050000X-0.225000X0.050000X0.225000X0*%
%TD*%
%TA.AperFunction,SMDPad,CuDef*%
%ADD44RoundRect,0.050000X-0.225000X-0.050000X0.225000X-0.050000X0.225000X0.050000X-0.225000X0.050000X0*%
%TD*%
%TA.AperFunction,SMDPad,CuDef*%
%ADD45RoundRect,0.218750X-0.218750X-0.256250X0.218750X-0.256250X0.218750X0.256250X-0.218750X0.256250X0*%
%TD*%
%TA.AperFunction,SMDPad,CuDef*%
%ADD46O,0.240000X0.600000*%
%TD*%
%TA.AperFunction,SMDPad,CuDef*%
%ADD47R,2.400000X1.650000*%
%TD*%
%TA.AperFunction,ComponentPad*%
%ADD48C,0.500000*%
%TD*%
%TA.AperFunction,SMDPad,CuDef*%
%ADD49R,0.500000X0.250000*%
%TD*%
%TA.AperFunction,SMDPad,CuDef*%
%ADD50RoundRect,0.218750X0.256250X-0.218750X0.256250X0.218750X-0.256250X0.218750X-0.256250X-0.218750X0*%
%TD*%
%TA.AperFunction,SMDPad,CuDef*%
%ADD51RoundRect,0.062500X-0.350000X-0.062500X0.350000X-0.062500X0.350000X0.062500X-0.350000X0.062500X0*%
%TD*%
%TA.AperFunction,SMDPad,CuDef*%
%ADD52RoundRect,0.062500X-0.062500X-0.350000X0.062500X-0.350000X0.062500X0.350000X-0.062500X0.350000X0*%
%TD*%
%TA.AperFunction,SMDPad,CuDef*%
%ADD53R,2.500000X2.500000*%
%TD*%
%TA.AperFunction,ViaPad*%
%ADD54C,0.600000*%
%TD*%
%TA.AperFunction,ViaPad*%
%ADD55C,0.500000*%
%TD*%
%TA.AperFunction,ViaPad*%
%ADD56C,0.400000*%
%TD*%
%TA.AperFunction,Conductor*%
%ADD57C,0.250000*%
%TD*%
%TA.AperFunction,Conductor*%
%ADD58C,0.200000*%
%TD*%
%TA.AperFunction,Conductor*%
%ADD59C,0.300000*%
%TD*%
%TA.AperFunction,Conductor*%
%ADD60C,0.150000*%
%TD*%
G04 APERTURE END LIST*
D10*
%TO.P,J6,1,Pin_1*%
%TO.N,+1V8*%
X76200000Y-55700000D03*
%TO.P,J6,2,Pin_2*%
%TO.N,GNDREF*%
X76200000Y-56700000D03*
%TO.P,J6,3,Pin_3*%
%TO.N,SD6*%
X76200000Y-57700000D03*
%TO.P,J6,4,Pin_4*%
%TO.N,SC6*%
X76200000Y-58700000D03*
D11*
%TO.P,J6,MP*%
%TO.N,N/C*%
X72325000Y-54400000D03*
X72325000Y-60000000D03*
%TD*%
D12*
%TO.P,D2,1,K*%
%TO.N,Net-(D2-K)*%
X102500000Y-77650000D03*
%TO.P,D2,2,A*%
%TO.N,PC11*%
X102500000Y-79225000D03*
%TD*%
D13*
%TO.P,C12,1*%
%TO.N,PB10*%
X92323000Y-92310000D03*
%TO.P,C12,2*%
%TO.N,GNDREF*%
X91363000Y-92310000D03*
%TD*%
D14*
%TO.P,C5,1*%
%TO.N,+1V8*%
X86950000Y-64400000D03*
%TO.P,C5,2*%
%TO.N,GNDREF*%
X88500000Y-64400000D03*
%TD*%
D15*
%TO.P,J5,1,Pin_1*%
%TO.N,+1V8*%
X83790000Y-53913000D03*
%TO.P,J5,2,Pin_2*%
%TO.N,GNDREF*%
X82790000Y-53913000D03*
%TO.P,J5,3,Pin_3*%
%TO.N,SD5*%
X81790000Y-53913000D03*
%TO.P,J5,4,Pin_4*%
%TO.N,SC5*%
X80790000Y-53913000D03*
D16*
%TO.P,J5,MP*%
%TO.N,N/C*%
X85090000Y-50038000D03*
X79490000Y-50038000D03*
%TD*%
D17*
%TO.P,C13,1*%
%TO.N,VBAT*%
X78613000Y-66027000D03*
%TO.P,C13,2*%
%TO.N,GNDREF*%
X78613000Y-67577000D03*
%TD*%
D18*
%TO.P,U2,1,I/O_1*%
%TO.N,USB_D+*%
X81400000Y-77801000D03*
%TO.P,U2,2,GND*%
%TO.N,GNDREF*%
X82350000Y-77801000D03*
%TO.P,U2,3,I/O_2*%
%TO.N,CC2*%
X83300000Y-77801000D03*
%TO.P,U2,4,I/O_3*%
%TO.N,CC1*%
X83300000Y-75311000D03*
%TO.P,U2,5,VP*%
%TO.N,VBUS*%
X82350000Y-75311000D03*
%TO.P,U2,6,I/O_4*%
%TO.N,USB_D-*%
X81400000Y-75311000D03*
%TD*%
D19*
%TO.P,D5,1,K*%
%TO.N,Net-(D5-K)*%
X87550000Y-81600000D03*
%TO.P,D5,2,A*%
%TO.N,VBUS*%
X85975000Y-81600000D03*
%TD*%
D13*
%TO.P,C10,1*%
%TO.N,PC5*%
X92323000Y-89810000D03*
%TO.P,C10,2*%
%TO.N,GNDREF*%
X91363000Y-89810000D03*
%TD*%
D14*
%TO.P,C8,1*%
%TO.N,+3.3V*%
X98625000Y-70112500D03*
%TO.P,C8,2*%
%TO.N,GNDREF*%
X100175000Y-70112500D03*
%TD*%
D20*
%TO.P,R8,1*%
%TO.N,CC2*%
X81395000Y-79693000D03*
%TO.P,R8,2*%
%TO.N,GNDREF*%
X81395000Y-81343000D03*
%TD*%
D21*
%TO.P,U1,1,PA2*%
%TO.N,unconnected-(U1-PA2-Pad1)*%
X100225000Y-91000000D03*
D22*
%TO.P,U1,2,PA1*%
%TO.N,unconnected-(U1-PA1-Pad2)*%
X100225000Y-90525000D03*
%TO.P,U1,3,PA0*%
%TO.N,User_GPIO*%
X100225000Y-90075000D03*
%TO.P,U1,4,VREF*%
%TO.N,+3.3V*%
X100225000Y-89625000D03*
%TO.P,U1,5,VSS*%
%TO.N,GNDREF*%
X100225000Y-89175000D03*
%TO.P,U1,6,VDDA*%
%TO.N,+3.3V*%
X100225000Y-88725000D03*
%TO.P,U1,7,PC3*%
%TO.N,unconnected-(U1-PC3-Pad7)*%
X100225000Y-88275000D03*
%TO.P,U1,8,PC2*%
%TO.N,unconnected-(U1-PC2-Pad8)*%
X100225000Y-87825000D03*
%TO.P,U1,9,PC1*%
%TO.N,unconnected-(U1-PC1-Pad9)*%
X100225000Y-87375000D03*
%TO.P,U1,10,NRST*%
%TO.N,NRST*%
X100225000Y-86925000D03*
%TO.P,U1,11,PB9*%
%TO.N,SDA*%
X100225000Y-86475000D03*
%TO.P,U1,12,PC0*%
%TO.N,unconnected-(U1-PC0-Pad12)*%
X100225000Y-86025000D03*
%TO.P,U1,13,PH3-BOOT0*%
%TO.N,PH3*%
X100225000Y-85575000D03*
%TO.P,U1,14,PB8*%
%TO.N,SCL*%
X100225000Y-85125000D03*
%TO.P,U1,15,VBAT*%
%TO.N,+3.3V*%
X100225000Y-84675000D03*
%TO.P,U1,16,VSSSMPS*%
%TO.N,GNDREF*%
X100225000Y-84225000D03*
D21*
%TO.P,U1,17,VDDSMPS*%
%TO.N,+3.3V*%
X100225000Y-83750000D03*
D23*
%TO.P,U1,18,PB7*%
%TO.N,unconnected-(U1-PB7-Pad18)*%
X99750000Y-83750000D03*
%TO.P,U1,19,PB5*%
%TO.N,unconnected-(U1-PB5-Pad19)*%
X99300000Y-83750000D03*
%TO.P,U1,20,PB4*%
%TO.N,unconnected-(U1-PB4-Pad20)*%
X98850000Y-83750000D03*
%TO.P,U1,21,PB3*%
%TO.N,unconnected-(U1-PB3-Pad21)*%
X98400000Y-83750000D03*
%TO.P,U1,22,PC10*%
%TO.N,PC10*%
X97950000Y-83750000D03*
%TO.P,U1,23,PC11*%
%TO.N,PC11*%
X97500000Y-83750000D03*
%TO.P,U1,24,PC12*%
%TO.N,PC12*%
X97050000Y-83750000D03*
%TO.P,U1,25,PA13*%
%TO.N,PA13*%
X96600000Y-83750000D03*
%TO.P,U1,26,PA14*%
%TO.N,PA14*%
X96150000Y-83750000D03*
%TO.P,U1,27,PA15*%
%TO.N,unconnected-(U1-PA15-Pad27)*%
X95700000Y-83750000D03*
%TO.P,U1,28,PA10*%
%TO.N,unconnected-(U1-PA10-Pad28)*%
X95250000Y-83750000D03*
%TO.P,U1,29,PA12*%
%TO.N,USB_D+*%
X94800000Y-83750000D03*
%TO.P,U1,30,PA11*%
%TO.N,USB_D-*%
X94350000Y-83750000D03*
D21*
%TO.P,U1,31,VSS*%
%TO.N,GNDREF*%
X93875000Y-83750000D03*
D22*
%TO.P,U1,32,VDDUSB*%
%TO.N,+3.3V*%
X93875000Y-84225000D03*
%TO.P,U1,33,PD0*%
%TO.N,unconnected-(U1-PD0-Pad33)*%
X93875000Y-84675000D03*
%TO.P,U1,34,PD1*%
%TO.N,unconnected-(U1-PD1-Pad34)*%
X93875000Y-85125000D03*
%TO.P,U1,35,PB13*%
%TO.N,unconnected-(U1-PB13-Pad35)*%
X93875000Y-85575000D03*
%TO.P,U1,36,PC6*%
%TO.N,unconnected-(U1-PC6-Pad36)*%
X93875000Y-86025000D03*
%TO.P,U1,37,PB14*%
%TO.N,unconnected-(U1-PB14-Pad37)*%
X93875000Y-86475000D03*
%TO.P,U1,38,PB15*%
%TO.N,unconnected-(U1-PB15-Pad38)*%
X93875000Y-86925000D03*
%TO.P,U1,39,PB6*%
%TO.N,unconnected-(U1-PB6-Pad39)*%
X93875000Y-87375000D03*
%TO.P,U1,40,PC13*%
%TO.N,PC13*%
X93875000Y-87825000D03*
%TO.P,U1,41,PB12*%
%TO.N,unconnected-(U1-PB12-Pad41)*%
X93875000Y-88275000D03*
%TO.P,U1,42,PE4*%
%TO.N,unconnected-(U1-PE4-Pad42)*%
X93875000Y-88725000D03*
%TO.P,U1,43,PB1*%
%TO.N,unconnected-(U1-PB1-Pad43)*%
X93875000Y-89175000D03*
%TO.P,U1,44,PB0*%
%TO.N,unconnected-(U1-PB0-Pad44)*%
X93875000Y-89625000D03*
%TO.P,U1,45,PC5*%
%TO.N,PC5*%
X93875000Y-90075000D03*
%TO.P,U1,46,PB11*%
%TO.N,PB11*%
X93875000Y-90525000D03*
D21*
%TO.P,U1,47,PB10*%
%TO.N,PB10*%
X93875000Y-91000000D03*
D23*
%TO.P,U1,48,PB2*%
%TO.N,unconnected-(U1-PB2-Pad48)*%
X94350000Y-91000000D03*
%TO.P,U1,49,PC4*%
%TO.N,unconnected-(U1-PC4-Pad49)*%
X94800000Y-91000000D03*
%TO.P,U1,50,PA8*%
%TO.N,PWM1*%
X95250000Y-91000000D03*
%TO.P,U1,51,PA9*%
%TO.N,PWM2*%
X95700000Y-91000000D03*
%TO.P,U1,52,PA7*%
%TO.N,unconnected-(U1-PA7-Pad52)*%
X96150000Y-91000000D03*
%TO.P,U1,53,PA6*%
%TO.N,unconnected-(U1-PA6-Pad53)*%
X96600000Y-91000000D03*
%TO.P,U1,54,PA5*%
%TO.N,unconnected-(U1-PA5-Pad54)*%
X97050000Y-91000000D03*
%TO.P,U1,55,PA4*%
%TO.N,unconnected-(U1-PA4-Pad55)*%
X97500000Y-91000000D03*
%TO.P,U1,56,PA3*%
%TO.N,ADC*%
X97950000Y-91000000D03*
%TO.P,U1,57,VSS*%
%TO.N,GNDREF*%
X98400000Y-91000000D03*
%TO.P,U1,58,ANT_IN*%
X98850000Y-91000000D03*
%TO.P,U1,59,RF_OUT*%
X99300000Y-91000000D03*
%TO.P,U1,60,VSS*%
X99750000Y-91000000D03*
D24*
%TO.P,U1,61,PH0*%
%TO.N,unconnected-(U1-PH0-Pad61)*%
X98400000Y-89625000D03*
%TO.P,U1,62,PH1*%
%TO.N,unconnected-(U1-PH1-Pad62)*%
X98400000Y-88725000D03*
%TO.P,U1,63,PD14*%
%TO.N,unconnected-(U1-PD14-Pad63)*%
X98400000Y-87825000D03*
%TO.P,U1,64,PE1*%
%TO.N,unconnected-(U1-PE1-Pad64)*%
X98400000Y-86925000D03*
%TO.P,U1,65,PD13*%
%TO.N,unconnected-(U1-PD13-Pad65)*%
X98400000Y-86025000D03*
%TO.P,U1,66,PD12*%
%TO.N,unconnected-(U1-PD12-Pad66)*%
X98400000Y-85125000D03*
%TO.P,U1,67,PD7*%
%TO.N,unconnected-(U1-PD7-Pad67)*%
X97500000Y-85125000D03*
%TO.P,U1,68,PD2*%
%TO.N,unconnected-(U1-PD2-Pad68)*%
X96600000Y-85125000D03*
%TO.P,U1,69,PC9*%
%TO.N,unconnected-(U1-PC9-Pad69)*%
X95700000Y-85125000D03*
%TO.P,U1,70,PD3*%
%TO.N,unconnected-(U1-PD3-Pad70)*%
X95700000Y-86025000D03*
%TO.P,U1,71,PC7*%
%TO.N,unconnected-(U1-PC7-Pad71)*%
X95700000Y-86925000D03*
%TO.P,U1,72,PE3*%
%TO.N,unconnected-(U1-PE3-Pad72)*%
X95700000Y-87825000D03*
%TO.P,U1,73,PD4*%
%TO.N,unconnected-(U1-PD4-Pad73)*%
X95700000Y-88725000D03*
%TO.P,U1,74,PD9*%
%TO.N,unconnected-(U1-PD9-Pad74)*%
X95700000Y-89625000D03*
%TO.P,U1,75,PD8*%
%TO.N,unconnected-(U1-PD8-Pad75)*%
X96600000Y-89625000D03*
%TO.P,U1,76,PD15*%
%TO.N,unconnected-(U1-PD15-Pad76)*%
X97500000Y-89625000D03*
%TO.P,U1,77,PD10*%
%TO.N,unconnected-(U1-PD10-Pad77)*%
X97500000Y-88725000D03*
%TO.P,U1,78,PE2*%
%TO.N,unconnected-(U1-PE2-Pad78)*%
X97500000Y-87825000D03*
%TO.P,U1,79,PE0*%
%TO.N,unconnected-(U1-PE0-Pad79)*%
X97500000Y-86925000D03*
%TO.P,U1,80,PD5*%
%TO.N,unconnected-(U1-PD5-Pad80)*%
X97500000Y-86025000D03*
%TO.P,U1,81,PD6*%
%TO.N,unconnected-(U1-PD6-Pad81)*%
X96600000Y-86025000D03*
%TO.P,U1,82,PD11*%
%TO.N,unconnected-(U1-PD11-Pad82)*%
X96600000Y-86925000D03*
%TO.P,U1,83,PC8*%
%TO.N,unconnected-(U1-PC8-Pad83)*%
X96600000Y-87825000D03*
%TO.P,U1,84,VSS*%
%TO.N,GNDREF*%
X96600000Y-88725000D03*
D25*
%TO.P,U1,85,ANT_NC*%
%TO.N,unconnected-(U1-ANT_NC-Pad85)*%
X100100000Y-93960000D03*
%TO.P,U1,86,VSS*%
%TO.N,GNDREF*%
X94000000Y-93960000D03*
%TD*%
D26*
%TO.P,U4,1,SD0*%
%TO.N,SD0*%
X97687500Y-60912500D03*
%TO.P,U4,2,SC0*%
%TO.N,SC0*%
X97687500Y-60412500D03*
%TO.P,U4,3,SD1*%
%TO.N,SD1*%
X97687500Y-59912500D03*
%TO.P,U4,4,SC1*%
%TO.N,SC1*%
X97687500Y-59412500D03*
%TO.P,U4,5,SD2*%
%TO.N,SD2*%
X97687500Y-58912500D03*
%TO.P,U4,6,SC2*%
%TO.N,SC2*%
X97687500Y-58412500D03*
D27*
%TO.P,U4,7,SD3*%
%TO.N,SD3*%
X97000000Y-57725000D03*
%TO.P,U4,8,SC3*%
%TO.N,SC3*%
X96500000Y-57725000D03*
%TO.P,U4,9,GND*%
%TO.N,GNDREF*%
X96000000Y-57725000D03*
%TO.P,U4,10,SD4*%
%TO.N,SD4*%
X95500000Y-57725000D03*
%TO.P,U4,11,SC4*%
%TO.N,SC4*%
X95000000Y-57725000D03*
%TO.P,U4,12,SD5*%
%TO.N,SD5*%
X94500000Y-57725000D03*
D26*
%TO.P,U4,13,SC5*%
%TO.N,SC5*%
X93812500Y-58412500D03*
%TO.P,U4,14,SD6*%
%TO.N,SD6*%
X93812500Y-58912500D03*
%TO.P,U4,15,SC6*%
%TO.N,SC6*%
X93812500Y-59412500D03*
%TO.P,U4,16,SD7*%
%TO.N,unconnected-(U4-SD7-Pad16)*%
X93812500Y-59912500D03*
%TO.P,U4,17,SC7*%
%TO.N,unconnected-(U4-SC7-Pad17)*%
X93812500Y-60412500D03*
%TO.P,U4,18,A2*%
%TO.N,GNDREF*%
X93812500Y-60912500D03*
D27*
%TO.P,U4,19,SCL*%
%TO.N,SCL*%
X94500000Y-61600000D03*
%TO.P,U4,20,SDA*%
%TO.N,SDA*%
X95000000Y-61600000D03*
%TO.P,U4,21,VCC*%
%TO.N,+3.3V*%
X95500000Y-61600000D03*
%TO.P,U4,22,A0*%
%TO.N,GNDREF*%
X96000000Y-61600000D03*
%TO.P,U4,23,A1*%
X96500000Y-61600000D03*
%TO.P,U4,24,~{RESET}*%
%TO.N,+3.3V*%
X97000000Y-61600000D03*
D28*
%TO.P,U4,25,1EP*%
%TO.N,unconnected-(U4-1EP-Pad25)*%
X95750000Y-59662500D03*
%TD*%
D29*
%TO.P,J9,A1-B12,GND*%
%TO.N,GNDREF*%
X78555000Y-73380000D03*
%TO.P,J9,A4-B9,VBUS*%
%TO.N,VBUS*%
X78555000Y-74180000D03*
D30*
%TO.P,J9,A5,CC1*%
%TO.N,CC1*%
X78555000Y-75330000D03*
%TO.P,J9,A6,DP1*%
%TO.N,USB_D+*%
X78555000Y-76330000D03*
%TO.P,J9,A7,DN1*%
%TO.N,USB_D-*%
X78555000Y-76830000D03*
%TO.P,J9,A8,SBU1*%
%TO.N,unconnected-(J9-SBU1-PadA8)*%
X78555000Y-77830000D03*
D29*
%TO.P,J9,B1-A12,GND*%
%TO.N,GNDREF*%
X78555000Y-79780000D03*
%TO.P,J9,B4-A9,VBUS*%
%TO.N,VBUS*%
X78555000Y-78980000D03*
D30*
%TO.P,J9,B5,CC2*%
%TO.N,CC2*%
X78555000Y-78330000D03*
%TO.P,J9,B6,DP2*%
%TO.N,USB_D+*%
X78555000Y-77330000D03*
%TO.P,J9,B7,DN2*%
%TO.N,USB_D-*%
X78555000Y-75830000D03*
%TO.P,J9,B8,SBU2*%
%TO.N,unconnected-(J9-SBU2-PadB8)*%
X78555000Y-74830000D03*
D31*
%TO.P,J9,SH1,GND*%
%TO.N,GNDREF*%
X77980000Y-72260000D03*
%TO.P,J9,SH2,GND*%
X77980000Y-80900000D03*
D32*
%TO.P,J9,SH3,GND*%
X73800000Y-72260000D03*
%TO.P,J9,SH4,GND*%
X73800000Y-80900000D03*
%TD*%
D14*
%TO.P,C6,1*%
%TO.N,+1V8*%
X86950000Y-66000000D03*
%TO.P,C6,2*%
%TO.N,GNDREF*%
X88500000Y-66000000D03*
%TD*%
D33*
%TO.P,C1,1*%
%TO.N,+5V*%
X94200000Y-65100000D03*
%TO.P,C1,2*%
%TO.N,GNDREF*%
X92650000Y-65100000D03*
%TD*%
D15*
%TO.P,J2,1,Pin_1*%
%TO.N,+1V8*%
X109317000Y-53900000D03*
%TO.P,J2,2,Pin_2*%
%TO.N,GNDREF*%
X108317000Y-53900000D03*
%TO.P,J2,3,Pin_3*%
%TO.N,SD2*%
X107317000Y-53900000D03*
%TO.P,J2,4,Pin_4*%
%TO.N,SC2*%
X106317000Y-53900000D03*
D16*
%TO.P,J2,MP*%
%TO.N,N/C*%
X110617000Y-50025000D03*
X105017000Y-50025000D03*
%TD*%
D34*
%TO.P,C14,1*%
%TO.N,VBUS*%
X85000000Y-75750000D03*
%TO.P,C14,2*%
%TO.N,GNDREF*%
X85000000Y-74200000D03*
%TD*%
D35*
%TO.P,JP1,1,A*%
%TO.N,+3.3V*%
X102825000Y-69400000D03*
D36*
%TO.P,JP1,2,B*%
%TO.N,PH3*%
X105365000Y-69400000D03*
%TD*%
D20*
%TO.P,R3,1*%
%TO.N,GNDREF*%
X104190000Y-74500000D03*
%TO.P,R3,2*%
%TO.N,Net-(D1-K)*%
X104190000Y-76150000D03*
%TD*%
D37*
%TO.P,R12,1*%
%TO.N,Net-(U6-PROG3)*%
X96300000Y-78937500D03*
%TO.P,R12,2*%
%TO.N,GNDREF*%
X94650000Y-78937500D03*
%TD*%
D19*
%TO.P,D6,1,K*%
%TO.N,Net-(D6-K)*%
X87550000Y-80000000D03*
%TO.P,D6,2,A*%
%TO.N,VBUS*%
X85975000Y-80000000D03*
%TD*%
D20*
%TO.P,R5,1*%
%TO.N,GNDREF*%
X100800000Y-74500000D03*
%TO.P,R5,2*%
%TO.N,Net-(D3-K)*%
X100800000Y-76150000D03*
%TD*%
D38*
%TO.P,J1,1,Pin_1*%
%TO.N,+1V8*%
X113854000Y-58700000D03*
%TO.P,J1,2,Pin_2*%
%TO.N,GNDREF*%
X113854000Y-57700000D03*
%TO.P,J1,3,Pin_3*%
%TO.N,SD1*%
X113854000Y-56700000D03*
%TO.P,J1,4,Pin_4*%
%TO.N,SC1*%
X113854000Y-55700000D03*
D39*
%TO.P,J1,MP*%
%TO.N,N/C*%
X117729000Y-60000000D03*
X117729000Y-54400000D03*
%TD*%
D35*
%TO.P,J10,1,Pin_1*%
%TO.N,PWM1*%
X114935000Y-64897000D03*
D36*
%TO.P,J10,2,Pin_2*%
%TO.N,unconnected-(J10-Pin_2-Pad2)*%
X114935000Y-67437000D03*
%TO.P,J10,3,Pin_3*%
%TO.N,GNDREF*%
X114935000Y-69977000D03*
%TO.P,J10,4,Pin_4*%
%TO.N,PWM2*%
X114935000Y-72517000D03*
%TO.P,J10,5,Pin_5*%
%TO.N,unconnected-(J10-Pin_5-Pad5)*%
X114935000Y-75057000D03*
%TO.P,J10,6,Pin_6*%
%TO.N,GNDREF*%
X114935000Y-77597000D03*
%TD*%
D37*
%TO.P,R15,1*%
%TO.N,Net-(U6-STAT1{slash}~{LBO})*%
X90750000Y-81600000D03*
%TO.P,R15,2*%
%TO.N,Net-(D5-K)*%
X89100000Y-81600000D03*
%TD*%
D40*
%TO.P,R9,1*%
%TO.N,CC1*%
X81395000Y-73406000D03*
%TO.P,R9,2*%
%TO.N,GNDREF*%
X81395000Y-71756000D03*
%TD*%
D41*
%TO.P,SW1,1,1*%
%TO.N,NRST*%
X105300000Y-59900000D03*
X105300000Y-66100000D03*
%TO.P,SW1,2,2*%
%TO.N,GNDREF*%
X101600000Y-59900000D03*
X101600000Y-66100000D03*
%TD*%
D40*
%TO.P,R1,1*%
%TO.N,+1V8*%
X83700000Y-60250000D03*
%TO.P,R1,2*%
%TO.N,SD0*%
X83700000Y-58600000D03*
%TD*%
D12*
%TO.P,D3,1,K*%
%TO.N,Net-(D3-K)*%
X100800000Y-77675000D03*
%TO.P,D3,2,A*%
%TO.N,PC12*%
X100800000Y-79250000D03*
%TD*%
D15*
%TO.P,J4,1,Pin_1*%
%TO.N,+1V8*%
X92553000Y-53900000D03*
%TO.P,J4,2,Pin_2*%
%TO.N,GNDREF*%
X91553000Y-53900000D03*
%TO.P,J4,3,Pin_3*%
%TO.N,SD4*%
X90553000Y-53900000D03*
%TO.P,J4,4,Pin_4*%
%TO.N,SC4*%
X89553000Y-53900000D03*
D16*
%TO.P,J4,MP*%
%TO.N,N/C*%
X93853000Y-50025000D03*
X88253000Y-50025000D03*
%TD*%
D14*
%TO.P,C3,1*%
%TO.N,+3.3V*%
X98612500Y-68317500D03*
%TO.P,C3,2*%
%TO.N,GNDREF*%
X100162500Y-68317500D03*
%TD*%
D10*
%TO.P,J7,1,Pin_1*%
%TO.N,PA14*%
X108875000Y-71800000D03*
%TO.P,J7,2,Pin_2*%
%TO.N,PA13*%
X108875000Y-72800000D03*
%TO.P,J7,3,Pin_3*%
%TO.N,GNDREF*%
X108875000Y-73800000D03*
%TO.P,J7,4,Pin_4*%
%TO.N,+3.3V*%
X108875000Y-74800000D03*
%TO.P,J7,5,Pin_5*%
%TO.N,NRST*%
X108875000Y-75800000D03*
D11*
%TO.P,J7,MP*%
%TO.N,N/C*%
X111400000Y-70500000D03*
X111400000Y-77100000D03*
%TD*%
D20*
%TO.P,R4,1*%
%TO.N,GNDREF*%
X102500000Y-74500000D03*
%TO.P,R4,2*%
%TO.N,Net-(D2-K)*%
X102500000Y-76150000D03*
%TD*%
D14*
%TO.P,C9,1*%
%TO.N,NRST*%
X108325000Y-68400000D03*
%TO.P,C9,2*%
%TO.N,GNDREF*%
X109875000Y-68400000D03*
%TD*%
D42*
%TO.P,R7,1*%
%TO.N,PH3*%
X108475000Y-79100000D03*
%TO.P,R7,2*%
%TO.N,GNDREF*%
X110125000Y-79100000D03*
%TD*%
D12*
%TO.P,D1,1,K*%
%TO.N,Net-(D1-K)*%
X104200000Y-77662500D03*
%TO.P,D1,2,A*%
%TO.N,PC10*%
X104200000Y-79237500D03*
%TD*%
D43*
%TO.P,U3,1,NC*%
%TO.N,unconnected-(U3-NC-Pad1)*%
X88200000Y-59800000D03*
%TO.P,U3,2,NC*%
%TO.N,unconnected-(U3-NC-Pad2)*%
X87800000Y-59800000D03*
%TO.P,U3,3,NC*%
%TO.N,unconnected-(U3-NC-Pad3)*%
X87400000Y-59800000D03*
%TO.P,U3,4,NC*%
%TO.N,unconnected-(U3-NC-Pad4)*%
X87000000Y-59800000D03*
%TO.P,U3,5,NC*%
%TO.N,unconnected-(U3-NC-Pad5)*%
X86600000Y-59800000D03*
%TO.P,U3,6,NC*%
%TO.N,unconnected-(U3-NC-Pad6)*%
X86200000Y-59800000D03*
D44*
%TO.P,U3,7,AUX_CL*%
%TO.N,unconnected-(U3-AUX_CL-Pad7)*%
X85700000Y-60300000D03*
%TO.P,U3,8,VDDIO*%
%TO.N,+1V8*%
X85700000Y-60700000D03*
%TO.P,U3,9,SDO/AD0*%
%TO.N,GNDREF*%
X85700000Y-61100000D03*
%TO.P,U3,10,REGOUT*%
%TO.N,Net-(U3-REGOUT)*%
X85700000Y-61500000D03*
%TO.P,U3,11,FSYNC*%
%TO.N,unconnected-(U3-FSYNC-Pad11)*%
X85700000Y-61900000D03*
%TO.P,U3,12,INT1*%
%TO.N,unconnected-(U3-INT1-Pad12)*%
X85700000Y-62300000D03*
D43*
%TO.P,U3,13,VDD*%
%TO.N,+1V8*%
X86200000Y-62800000D03*
%TO.P,U3,14,NC*%
%TO.N,unconnected-(U3-NC-Pad14)*%
X86600000Y-62800000D03*
%TO.P,U3,15,NC*%
%TO.N,unconnected-(U3-NC-Pad15)*%
X87000000Y-62800000D03*
%TO.P,U3,16,NC*%
%TO.N,unconnected-(U3-NC-Pad16)*%
X87400000Y-62800000D03*
%TO.P,U3,17,NC*%
%TO.N,unconnected-(U3-NC-Pad17)*%
X87800000Y-62800000D03*
%TO.P,U3,18,GND*%
%TO.N,GNDREF*%
X88200000Y-62800000D03*
D44*
%TO.P,U3,19,RESV*%
%TO.N,unconnected-(U3-RESV-Pad19)*%
X88700000Y-62300000D03*
%TO.P,U3,20,GND*%
%TO.N,GNDREF*%
X88700000Y-61900000D03*
%TO.P,U3,21,AUX_DA*%
%TO.N,unconnected-(U3-AUX_DA-Pad21)*%
X88700000Y-61500000D03*
%TO.P,U3,22,~{CS}*%
%TO.N,+1V8*%
X88700000Y-61100000D03*
%TO.P,U3,23,SCL/SCLK*%
%TO.N,SC0*%
X88700000Y-60700000D03*
%TO.P,U3,24,SDA/SDI*%
%TO.N,SD0*%
X88700000Y-60300000D03*
%TD*%
D14*
%TO.P,C4,1*%
%TO.N,+3.3V*%
X97225000Y-63400000D03*
%TO.P,C4,2*%
%TO.N,GNDREF*%
X98775000Y-63400000D03*
%TD*%
D40*
%TO.P,R11,1*%
%TO.N,GNDREF*%
X88700000Y-75050000D03*
%TO.P,R11,2*%
%TO.N,Net-(U6-VPCC)*%
X88700000Y-73400000D03*
%TD*%
D37*
%TO.P,R16,1*%
%TO.N,Net-(U6-STAT2)*%
X90750000Y-80000000D03*
%TO.P,R16,2*%
%TO.N,Net-(D6-K)*%
X89100000Y-80000000D03*
%TD*%
D45*
%TO.P,L1,1,1*%
%TO.N,Net-(U5-SW1)*%
X90825000Y-66800000D03*
%TO.P,L1,2,2*%
%TO.N,+1V8*%
X92400000Y-66800000D03*
%TD*%
D14*
%TO.P,C2,1*%
%TO.N,+1V8*%
X96300000Y-66600000D03*
%TO.P,C2,2*%
%TO.N,GNDREF*%
X97850000Y-66600000D03*
%TD*%
D41*
%TO.P,SW2,1,1*%
%TO.N,User_GPIO*%
X111200000Y-59900000D03*
X111200000Y-66100000D03*
%TO.P,SW2,2,2*%
%TO.N,GNDREF*%
X107500000Y-59900000D03*
X107500000Y-66100000D03*
%TD*%
D34*
%TO.P,C7,1*%
%TO.N,Net-(U3-REGOUT)*%
X83700000Y-63350000D03*
%TO.P,C7,2*%
%TO.N,GNDREF*%
X83700000Y-61800000D03*
%TD*%
D20*
%TO.P,R10,1*%
%TO.N,Net-(U6-VPCC)*%
X87100000Y-73400000D03*
%TO.P,R10,2*%
%TO.N,VBUS*%
X87100000Y-75050000D03*
%TD*%
D46*
%TO.P,U5,1,ADJ2*%
%TO.N,+3.3V*%
X95200000Y-68400000D03*
%TO.P,U5,2,MODE_DATA*%
%TO.N,GNDREF*%
X94700000Y-68400000D03*
%TO.P,U5,3,VIN*%
%TO.N,+5V*%
X94200000Y-68400000D03*
%TO.P,U5,4,FB1*%
%TO.N,+1V8*%
X93700000Y-68400000D03*
%TO.P,U5,5,DEF_1*%
%TO.N,+5V*%
X93200000Y-68400000D03*
%TO.P,U5,6,SW1*%
%TO.N,Net-(U5-SW1)*%
X93200000Y-71200000D03*
%TO.P,U5,7,EN1*%
%TO.N,+5V*%
X93700000Y-71200000D03*
%TO.P,U5,8,GND*%
%TO.N,GNDREF*%
X94200000Y-71200000D03*
%TO.P,U5,9,EN2*%
%TO.N,+5V*%
X94700000Y-71200000D03*
%TO.P,U5,10,SW2*%
%TO.N,Net-(U5-SW2)*%
X95200000Y-71200000D03*
D47*
%TO.P,U5,11*%
%TO.N,GNDREF*%
X94200000Y-69800000D03*
D48*
%TO.P,U5,PAD,GND*%
X94200000Y-69225000D03*
D49*
X95650000Y-69550000D03*
X92750000Y-69550000D03*
D48*
X95150000Y-69800000D03*
X93250000Y-69800000D03*
D49*
X95650000Y-70050000D03*
X92750000Y-70050000D03*
D48*
X94200000Y-70375000D03*
%TD*%
D50*
%TO.P,L2,1,1*%
%TO.N,Net-(U5-SW2)*%
X97000000Y-69987500D03*
%TO.P,L2,2,2*%
%TO.N,+3.3V*%
X97000000Y-68412500D03*
%TD*%
D40*
%TO.P,R2,1*%
%TO.N,+1V8*%
X90900000Y-63050000D03*
%TO.P,R2,2*%
%TO.N,SC0*%
X90900000Y-61400000D03*
%TD*%
D20*
%TO.P,R6,1*%
%TO.N,GNDREF*%
X99100000Y-74500000D03*
%TO.P,R6,2*%
%TO.N,Net-(D4-K)*%
X99100000Y-76150000D03*
%TD*%
D13*
%TO.P,C11,1*%
%TO.N,PB11*%
X92323000Y-91070000D03*
%TO.P,C11,2*%
%TO.N,GNDREF*%
X91363000Y-91070000D03*
%TD*%
D51*
%TO.P,U6,1,OUT*%
%TO.N,+5V*%
X90450000Y-74437500D03*
%TO.P,U6,2,VPCC*%
%TO.N,Net-(U6-VPCC)*%
X90450000Y-74937500D03*
%TO.P,U6,3,SEL*%
%TO.N,VBUS*%
X90450000Y-75437500D03*
%TO.P,U6,4,PROG2*%
X90450000Y-75937500D03*
%TO.P,U6,5,THERM*%
%TO.N,Net-(U6-THERM)*%
X90450000Y-76437500D03*
D52*
%TO.P,U6,6,~{PG}*%
%TO.N,unconnected-(U6-~{PG}-Pad6)*%
X91387500Y-77375000D03*
%TO.P,U6,7,STAT2*%
%TO.N,Net-(U6-STAT2)*%
X91887500Y-77375000D03*
%TO.P,U6,8,STAT1/~{LBO}*%
%TO.N,Net-(U6-STAT1{slash}~{LBO})*%
X92387500Y-77375000D03*
%TO.P,U6,9,~{TE}*%
%TO.N,VBUS*%
X92887500Y-77375000D03*
%TO.P,U6,10,V_{SS}*%
%TO.N,GNDREF*%
X93387500Y-77375000D03*
D51*
%TO.P,U6,11,V_{SS}*%
X94325000Y-76437500D03*
%TO.P,U6,12,PROG3*%
%TO.N,Net-(U6-PROG3)*%
X94325000Y-75937500D03*
%TO.P,U6,13,PROG1*%
%TO.N,Net-(U6-PROG1)*%
X94325000Y-75437500D03*
%TO.P,U6,14,V_{BAT}*%
%TO.N,VBAT*%
X94325000Y-74937500D03*
%TO.P,U6,15,V_{BAT}*%
X94325000Y-74437500D03*
D52*
%TO.P,U6,16,V_{BAT_SENSE}*%
X93387500Y-73500000D03*
%TO.P,U6,17,CE*%
%TO.N,VBUS*%
X92887500Y-73500000D03*
%TO.P,U6,18,IN*%
X92387500Y-73500000D03*
%TO.P,U6,19,IN*%
X91887500Y-73500000D03*
%TO.P,U6,20,OUT*%
%TO.N,+5V*%
X91387500Y-73500000D03*
D53*
%TO.P,U6,21,V_{SS}*%
%TO.N,GNDREF*%
X92387500Y-75437500D03*
%TD*%
D12*
%TO.P,D4,1,K*%
%TO.N,Net-(D4-K)*%
X99100000Y-77662500D03*
%TO.P,D4,2,A*%
%TO.N,PC13*%
X99100000Y-79237500D03*
%TD*%
D10*
%TO.P,J8,1,Pin_1*%
%TO.N,VBAT*%
X76200000Y-66294000D03*
%TO.P,J8,2,Pin_2*%
%TO.N,GNDREF*%
X76200000Y-67294000D03*
D11*
%TO.P,J8,MP*%
%TO.N,N/C*%
X72325000Y-64994000D03*
X72325000Y-68594000D03*
%TD*%
D42*
%TO.P,TH1,1*%
%TO.N,GNDREF*%
X87275000Y-78400000D03*
%TO.P,TH1,2*%
%TO.N,Net-(U6-THERM)*%
X88925000Y-78400000D03*
%TD*%
D15*
%TO.P,J3,1,Pin_1*%
%TO.N,+1V8*%
X100935000Y-53913000D03*
%TO.P,J3,2,Pin_2*%
%TO.N,GNDREF*%
X99935000Y-53913000D03*
%TO.P,J3,3,Pin_3*%
%TO.N,SD3*%
X98935000Y-53913000D03*
%TO.P,J3,4,Pin_4*%
%TO.N,SC3*%
X97935000Y-53913000D03*
D16*
%TO.P,J3,MP*%
%TO.N,N/C*%
X102235000Y-50038000D03*
X96635000Y-50038000D03*
%TD*%
D40*
%TO.P,R13,1*%
%TO.N,Net-(U6-PROG1)*%
X96350000Y-75162500D03*
%TO.P,R13,2*%
%TO.N,GNDREF*%
X96350000Y-73512500D03*
%TD*%
D54*
%TO.N,+5V*%
X94200000Y-67100000D03*
D55*
X92100000Y-68400000D03*
D54*
%TO.N,GNDREF*%
X75700000Y-88600000D03*
X72300000Y-93700000D03*
X84200000Y-88600000D03*
X101600000Y-63400000D03*
X85900000Y-93700000D03*
X82500000Y-86900000D03*
X77400000Y-85200000D03*
X98900000Y-56100000D03*
X77400000Y-93700000D03*
X84200000Y-90300000D03*
X74000000Y-92000000D03*
X82000000Y-63500000D03*
X89300000Y-93700000D03*
X80800000Y-88600000D03*
X72300000Y-88600000D03*
X74000000Y-85200000D03*
X79100000Y-55800000D03*
X86700000Y-55300000D03*
X82500000Y-90300000D03*
X85900000Y-90300000D03*
X85900000Y-85200000D03*
D56*
X96600000Y-88700000D03*
D55*
X98800000Y-73500000D03*
D54*
X72300000Y-85200000D03*
X91400000Y-88700000D03*
X80800000Y-92000000D03*
X72300000Y-90300000D03*
X79100000Y-88600000D03*
X87600000Y-92000000D03*
X89300000Y-88600000D03*
X87600000Y-88600000D03*
X75700000Y-90300000D03*
D55*
X89900000Y-64400000D03*
D54*
X92100000Y-63900000D03*
X79100000Y-86900000D03*
X91470000Y-84230000D03*
X82500000Y-88600000D03*
X72300000Y-86900000D03*
X79100000Y-90300000D03*
X87600000Y-90300000D03*
X74000000Y-93700000D03*
X87600000Y-86900000D03*
X82600000Y-80900000D03*
X82500000Y-85200000D03*
X89300000Y-85200000D03*
X85900000Y-86900000D03*
X79100000Y-92000000D03*
X87600000Y-85200000D03*
D55*
X84300000Y-67300000D03*
D54*
X75700000Y-85200000D03*
X96300000Y-72100000D03*
X98300000Y-65200000D03*
X74000000Y-88600000D03*
X80800000Y-90300000D03*
X74000000Y-86900000D03*
X75700000Y-93700000D03*
X74000000Y-90300000D03*
X85900000Y-92000000D03*
X84200000Y-86900000D03*
D56*
X99300000Y-84500000D03*
D54*
X87600000Y-93700000D03*
X80800000Y-93700000D03*
X77400000Y-86900000D03*
X77400000Y-90300000D03*
X77400000Y-88600000D03*
X80800000Y-85200000D03*
X77400000Y-92000000D03*
X93200000Y-80800000D03*
X79100000Y-85200000D03*
X75700000Y-92000000D03*
X82500000Y-79000000D03*
X89300000Y-92000000D03*
D55*
X96200000Y-62700000D03*
D54*
X82500000Y-93700000D03*
X79100000Y-93700000D03*
X80800000Y-86900000D03*
X84200000Y-92000000D03*
D56*
X99450000Y-89250000D03*
X92900000Y-62300000D03*
D55*
X103700000Y-52800000D03*
D54*
X82500000Y-92000000D03*
X72300000Y-92000000D03*
X84200000Y-85200000D03*
X85900000Y-88600000D03*
X89300000Y-90300000D03*
X75700000Y-86900000D03*
X89300000Y-86900000D03*
X84200000Y-93700000D03*
%TO.N,NRST*%
X107000000Y-77000000D03*
D56*
X101400000Y-86900000D03*
D54*
%TO.N,SCL*%
X93600000Y-63100000D03*
D56*
X101200000Y-84200000D03*
%TO.N,SDA*%
X101400000Y-86100000D03*
D54*
X94700000Y-63000000D03*
%TO.N,Net-(U5-SW1)*%
X91500000Y-69500000D03*
X90100000Y-68100000D03*
D55*
%TO.N,SD0*%
X99200000Y-61200000D03*
X89900000Y-59900000D03*
%TO.N,SC0*%
X92600000Y-60100000D03*
X99800000Y-60400000D03*
D54*
%TO.N,PC13*%
X92700000Y-86500000D03*
D55*
X99100000Y-80700000D03*
D56*
%TO.N,PWM1*%
X94700000Y-87900000D03*
D54*
X112700000Y-65000000D03*
%TO.N,PWM2*%
X113300000Y-76000000D03*
D56*
X93900000Y-92318934D03*
D54*
%TO.N,USB_D-*%
X85000000Y-78900000D03*
X85000000Y-83600000D03*
%TO.N,PH3*%
X106100000Y-79100000D03*
%TO.N,VBUS*%
X88800000Y-75937500D03*
X80000000Y-79900000D03*
X86000000Y-77800000D03*
X80000000Y-73800000D03*
X93100000Y-78600000D03*
X92400000Y-72400000D03*
X82400000Y-74100000D03*
D55*
%TO.N,VBAT*%
X82400000Y-69800000D03*
D54*
X93400000Y-72500000D03*
%TO.N,+1V8*%
X94600000Y-52300000D03*
X92100000Y-60900000D03*
%TO.N,+3.3V*%
X106000000Y-74800000D03*
D56*
X99437500Y-71400000D03*
D54*
X92700000Y-84700000D03*
D56*
X99200000Y-83100000D03*
%TD*%
D57*
%TO.N,+5V*%
X91045000Y-71755000D02*
X90450000Y-72350000D01*
X93700000Y-71600000D02*
X93700000Y-71200000D01*
X90700000Y-70265600D02*
X92189400Y-71755000D01*
X93755000Y-71755000D02*
X94100000Y-72100000D01*
X94100000Y-72100000D02*
X94350000Y-72100000D01*
X93200000Y-68400000D02*
X91400000Y-68400000D01*
X90700000Y-69100000D02*
X90700000Y-70265600D01*
X91400000Y-68400000D02*
X90700000Y-69100000D01*
X92189400Y-71755000D02*
X91045000Y-71755000D01*
X94700000Y-71750000D02*
X94700000Y-71200000D01*
X93545000Y-71755000D02*
X93700000Y-71600000D01*
D58*
X90450000Y-72562500D02*
X90450000Y-72350000D01*
D57*
X90450000Y-72350000D02*
X90450000Y-74437500D01*
X94200000Y-67100000D02*
X94200000Y-68400000D01*
X93355330Y-71755000D02*
X93755000Y-71755000D01*
X92189400Y-71755000D02*
X93355330Y-71755000D01*
X94350000Y-72100000D02*
X94700000Y-71750000D01*
D59*
X94200000Y-67100000D02*
X94200000Y-65100000D01*
D58*
X91387500Y-73500000D02*
X90450000Y-72562500D01*
D57*
X93355330Y-71755000D02*
X93545000Y-71755000D01*
D59*
%TO.N,GNDREF*%
X78613000Y-68974000D02*
X81395000Y-71756000D01*
X88500000Y-66000000D02*
X88500000Y-64400000D01*
X117000000Y-75532000D02*
X117000000Y-72042000D01*
D58*
X88425000Y-61900000D02*
X88195000Y-62130000D01*
D59*
X92650000Y-64450000D02*
X92100000Y-63900000D01*
X91553000Y-53900000D02*
X91553000Y-53125001D01*
X98300000Y-65200000D02*
X97850000Y-65650000D01*
D60*
X99300000Y-89400000D02*
X99450000Y-89250000D01*
D59*
X79100000Y-55800000D02*
X78300000Y-56600000D01*
X97850000Y-65650000D02*
X97850000Y-66600000D01*
D57*
X93812500Y-60912500D02*
X92900000Y-61825000D01*
D59*
X91470000Y-84230000D02*
X84282000Y-84230000D01*
X104190000Y-74500000D02*
X105600000Y-75910000D01*
D57*
X93387500Y-77675000D02*
X94650000Y-78937500D01*
D59*
X109400000Y-67300000D02*
X108137868Y-67300000D01*
X90927999Y-52500000D02*
X88000000Y-52500000D01*
X73800000Y-80900000D02*
X77980000Y-80900000D01*
X117200000Y-64100000D02*
X117200000Y-67712000D01*
X86700000Y-53800000D02*
X86700000Y-55300000D01*
D57*
X84800000Y-74200000D02*
X84400000Y-73800000D01*
X99935000Y-55065000D02*
X98900000Y-56100000D01*
D59*
X101600000Y-59337868D02*
X102637868Y-58300000D01*
X82157000Y-81343000D02*
X82600000Y-80900000D01*
X91363000Y-93263000D02*
X91363000Y-92310000D01*
X100225000Y-89175000D02*
X99525000Y-89175000D01*
D58*
X88200000Y-62800000D02*
X88200000Y-64100000D01*
D59*
X78613000Y-67577000D02*
X78613000Y-68974000D01*
X92060000Y-93960000D02*
X91363000Y-93263000D01*
D57*
X94325000Y-76437500D02*
X93387500Y-76437500D01*
D59*
X78555000Y-73380000D02*
X78555000Y-72835000D01*
X78555000Y-72835000D02*
X77980000Y-72260000D01*
X82350000Y-78950000D02*
X82350000Y-77801000D01*
D57*
X88700000Y-75050000D02*
X87850000Y-74200000D01*
X98775000Y-63400000D02*
X101600000Y-63400000D01*
D59*
X73800000Y-72260000D02*
X77980000Y-72260000D01*
D58*
X85700000Y-61100000D02*
X84400000Y-61100000D01*
D57*
X94200000Y-69225000D02*
X94700000Y-68725000D01*
X97100000Y-52500000D02*
X99400000Y-52500000D01*
X95400000Y-70050000D02*
X95150000Y-69800000D01*
D59*
X91363000Y-92310000D02*
X91363000Y-89810000D01*
X112300000Y-58479001D02*
X112300000Y-59200000D01*
X78423000Y-81343000D02*
X77980000Y-80900000D01*
X101600000Y-59900000D02*
X101600000Y-59337868D01*
X112300000Y-59200000D02*
X117200000Y-64100000D01*
X76200000Y-67294000D02*
X78330000Y-67294000D01*
X107500000Y-59100000D02*
X107500000Y-59900000D01*
X109875000Y-67775000D02*
X109400000Y-67300000D01*
D57*
X92750000Y-69550000D02*
X93000000Y-69550000D01*
D59*
X107500000Y-59900000D02*
X107500000Y-59337868D01*
X81395000Y-71756000D02*
X82356000Y-71756000D01*
X73800000Y-80900000D02*
X73800000Y-72260000D01*
D58*
X88195000Y-62130000D02*
X88195000Y-62795000D01*
D57*
X87850000Y-74200000D02*
X84800000Y-74200000D01*
D59*
X81395000Y-81343000D02*
X78423000Y-81343000D01*
X109875000Y-68400000D02*
X109875000Y-67775000D01*
X105600000Y-75910000D02*
X105600000Y-77400000D01*
D57*
X94200000Y-71200000D02*
X94200000Y-69225000D01*
D59*
X108317000Y-53900000D02*
X108317000Y-53125001D01*
X117000000Y-72042000D02*
X114935000Y-69977000D01*
X76300000Y-56600000D02*
X76200000Y-56700000D01*
X106100000Y-77900000D02*
X108925000Y-77900000D01*
X78484000Y-71756000D02*
X77980000Y-72260000D01*
D57*
X99935000Y-53913000D02*
X99935000Y-55065000D01*
D59*
X91400000Y-89773000D02*
X91363000Y-89810000D01*
X106700000Y-58300000D02*
X107500000Y-59100000D01*
X107500000Y-66100000D02*
X107500000Y-59900000D01*
D57*
X95650000Y-70050000D02*
X95400000Y-70050000D01*
D59*
X108925000Y-77900000D02*
X110125000Y-79100000D01*
X84282000Y-84230000D02*
X81395000Y-81343000D01*
X103200000Y-73800000D02*
X102500000Y-74500000D01*
X78300000Y-56600000D02*
X76300000Y-56600000D01*
X84300000Y-69812000D02*
X82356000Y-71756000D01*
X100175000Y-67525000D02*
X101600000Y-66100000D01*
X88000000Y-52500000D02*
X86700000Y-53800000D01*
D57*
X96300000Y-72100000D02*
X96350000Y-72150000D01*
D59*
X107991999Y-52800000D02*
X103700000Y-52800000D01*
X92650000Y-65100000D02*
X92650000Y-64450000D01*
X78330000Y-67294000D02*
X78613000Y-67577000D01*
D57*
X96350000Y-72150000D02*
X96350000Y-73512500D01*
X94700000Y-68725000D02*
X94700000Y-68400000D01*
D60*
X99575000Y-84225000D02*
X99300000Y-84500000D01*
D59*
X82000000Y-65000000D02*
X82000000Y-63500000D01*
X91400000Y-88700000D02*
X91400000Y-89773000D01*
D57*
X92900000Y-61825000D02*
X92900000Y-62300000D01*
D59*
X81395000Y-71756000D02*
X78484000Y-71756000D01*
D57*
X95650000Y-69550000D02*
X95400000Y-69550000D01*
X96000000Y-62500000D02*
X96200000Y-62700000D01*
D59*
X87275000Y-76675000D02*
X87275000Y-78400000D01*
X82500000Y-79100000D02*
X82350000Y-78950000D01*
X113079001Y-57700000D02*
X112300000Y-58479001D01*
X100175000Y-70112500D02*
X100175000Y-67525000D01*
D60*
X100225000Y-84225000D02*
X99575000Y-84225000D01*
D59*
X108875000Y-73800000D02*
X103200000Y-73800000D01*
X113854000Y-57700000D02*
X113079001Y-57700000D01*
X98400000Y-91000000D02*
X99750000Y-91000000D01*
D57*
X94650000Y-78937500D02*
X94650000Y-79350000D01*
X93250000Y-69800000D02*
X95150000Y-69800000D01*
D59*
X88500000Y-64400000D02*
X89900000Y-64400000D01*
X82356000Y-71756000D02*
X84400000Y-73800000D01*
X78555000Y-79780000D02*
X78555000Y-80325000D01*
D57*
X94650000Y-79350000D02*
X93200000Y-80800000D01*
D59*
X82000000Y-63500000D02*
X83700000Y-61800000D01*
X107500000Y-66662132D02*
X107500000Y-66100000D01*
X91470000Y-84230000D02*
X91400000Y-84300000D01*
X84400000Y-73800000D02*
X87275000Y-76675000D01*
D60*
X96600000Y-88725000D02*
X96600000Y-88700000D01*
D59*
X107500000Y-59337868D02*
X109137868Y-57700000D01*
D57*
X92750000Y-70050000D02*
X93000000Y-70050000D01*
D59*
X83402001Y-55300000D02*
X82790000Y-54687999D01*
D58*
X88700000Y-61900000D02*
X88425000Y-61900000D01*
D59*
X82790000Y-54687999D02*
X82790000Y-53913000D01*
X99100000Y-74500000D02*
X99100000Y-73800000D01*
D58*
X88200000Y-64100000D02*
X88500000Y-64400000D01*
D59*
X108137868Y-67300000D02*
X107500000Y-66662132D01*
X91400000Y-84300000D02*
X91400000Y-88700000D01*
X101600000Y-63400000D02*
X101600000Y-59900000D01*
D57*
X93000000Y-70050000D02*
X93250000Y-69800000D01*
D59*
X91553000Y-53125001D02*
X90927999Y-52500000D01*
X117200000Y-67712000D02*
X114935000Y-69977000D01*
X101600000Y-66100000D02*
X101600000Y-63400000D01*
D58*
X84400000Y-61100000D02*
X83700000Y-61800000D01*
D59*
X84300000Y-67300000D02*
X84300000Y-69812000D01*
X99100000Y-74500000D02*
X104190000Y-74500000D01*
X86700000Y-55300000D02*
X83402001Y-55300000D01*
D57*
X93387500Y-77375000D02*
X93387500Y-77675000D01*
X96000000Y-61600000D02*
X96000000Y-62500000D01*
D59*
X99100000Y-73800000D02*
X98800000Y-73500000D01*
X99525000Y-89175000D02*
X99450000Y-89250000D01*
X108317000Y-53125001D02*
X107991999Y-52800000D01*
X93875000Y-83750000D02*
X91950000Y-83750000D01*
X81395000Y-81343000D02*
X82157000Y-81343000D01*
D57*
X99400000Y-52500000D02*
X99935000Y-53035000D01*
X96000000Y-53600000D02*
X97100000Y-52500000D01*
D59*
X99300000Y-89400000D02*
X99300000Y-91000000D01*
D57*
X93387500Y-77375000D02*
X93387500Y-76437500D01*
D59*
X102637868Y-58300000D02*
X106700000Y-58300000D01*
X114935000Y-77597000D02*
X117000000Y-75532000D01*
X109137868Y-57700000D02*
X113854000Y-57700000D01*
D57*
X96000000Y-57725000D02*
X96000000Y-53600000D01*
D58*
X88195000Y-62795000D02*
X88200000Y-62800000D01*
D59*
X94000000Y-93960000D02*
X92060000Y-93960000D01*
X91950000Y-83750000D02*
X91470000Y-84230000D01*
D57*
X93387500Y-76437500D02*
X92387500Y-75437500D01*
D59*
X105600000Y-77400000D02*
X106100000Y-77900000D01*
D57*
X95400000Y-69550000D02*
X95150000Y-69800000D01*
X99935000Y-53035000D02*
X99935000Y-53913000D01*
X96000000Y-61600000D02*
X96500000Y-61600000D01*
D59*
X78555000Y-80325000D02*
X77980000Y-80900000D01*
D57*
X93000000Y-69550000D02*
X93250000Y-69800000D01*
D59*
X84300000Y-67300000D02*
X82000000Y-65000000D01*
D58*
%TO.N,Net-(U3-REGOUT)*%
X83700000Y-63350000D02*
X83700000Y-63225000D01*
X83700000Y-63225000D02*
X85425000Y-61500000D01*
X85425000Y-61500000D02*
X85700000Y-61500000D01*
D59*
%TO.N,Net-(D1-K)*%
X104190000Y-76150000D02*
X104190000Y-77652500D01*
X104190000Y-77652500D02*
X104200000Y-77662500D01*
%TO.N,NRST*%
X107000000Y-77000000D02*
X107000000Y-76500000D01*
X107000000Y-76500000D02*
X107700000Y-75800000D01*
X107700000Y-75800000D02*
X108875000Y-75800000D01*
X105300000Y-66100000D02*
X105300000Y-59900000D01*
D60*
X101375000Y-86925000D02*
X101400000Y-86900000D01*
D59*
X107100000Y-68400000D02*
X105300000Y-66600000D01*
X110600000Y-71800000D02*
X110600000Y-74849999D01*
X108325000Y-68400000D02*
X108325000Y-69525000D01*
X110600000Y-74849999D02*
X109649999Y-75800000D01*
X108325000Y-69525000D02*
X110600000Y-71800000D01*
X108325000Y-68400000D02*
X107100000Y-68400000D01*
X105300000Y-66600000D02*
X105300000Y-66100000D01*
D60*
X100225000Y-86925000D02*
X101375000Y-86925000D01*
D59*
X109649999Y-75800000D02*
X108875000Y-75800000D01*
%TO.N,Net-(D2-K)*%
X102500000Y-76150000D02*
X102500000Y-77650000D01*
%TO.N,PC5*%
X92588000Y-90075000D02*
X93875000Y-90075000D01*
X92323000Y-89810000D02*
X92588000Y-90075000D01*
%TO.N,Net-(D3-K)*%
X100800000Y-76150000D02*
X100800000Y-77675000D01*
%TO.N,PB11*%
X92868000Y-90525000D02*
X93875000Y-90525000D01*
X92323000Y-91070000D02*
X92868000Y-90525000D01*
%TO.N,Net-(D4-K)*%
X99100000Y-76150000D02*
X99100000Y-77662500D01*
%TO.N,PB10*%
X92565000Y-92310000D02*
X93875000Y-91000000D01*
X92323000Y-92310000D02*
X92565000Y-92310000D01*
D57*
%TO.N,SC1*%
X101400000Y-56800000D02*
X107200000Y-56800000D01*
X97687500Y-59412500D02*
X98787500Y-59412500D01*
X108300000Y-55700000D02*
X113854000Y-55700000D01*
X98787500Y-59412500D02*
X101400000Y-56800000D01*
X107200000Y-56800000D02*
X108300000Y-55700000D01*
%TO.N,SD1*%
X99287500Y-59912500D02*
X101600000Y-57600000D01*
X107800000Y-57600000D02*
X108700000Y-56700000D01*
X97687500Y-59912500D02*
X99287500Y-59912500D01*
X101600000Y-57600000D02*
X107800000Y-57600000D01*
X108700000Y-56700000D02*
X113854000Y-56700000D01*
%TO.N,SC2*%
X104917000Y-55300000D02*
X106317000Y-53900000D01*
X100800000Y-55300000D02*
X104917000Y-55300000D01*
X97687500Y-58412500D02*
X100800000Y-55300000D01*
%TO.N,SD2*%
X107317000Y-53900000D02*
X107317000Y-54674999D01*
X100988244Y-56000000D02*
X98075744Y-58912500D01*
X107317000Y-54674999D02*
X105991999Y-56000000D01*
X105991999Y-56000000D02*
X100988244Y-56000000D01*
X98075744Y-58912500D02*
X97687500Y-58912500D01*
%TO.N,SC3*%
X97935000Y-53913000D02*
X96500000Y-55348000D01*
X96500000Y-55348000D02*
X96500000Y-57725000D01*
%TO.N,SD3*%
X97000000Y-56800000D02*
X98935000Y-54865000D01*
X97000000Y-57725000D02*
X97000000Y-56800000D01*
X98935000Y-54865000D02*
X98935000Y-53913000D01*
%TO.N,SC4*%
X93263244Y-55600000D02*
X95000000Y-57336756D01*
X90478001Y-55600000D02*
X93263244Y-55600000D01*
X95000000Y-57336756D02*
X95000000Y-57725000D01*
X89553000Y-54674999D02*
X90478001Y-55600000D01*
X89553000Y-53900000D02*
X89553000Y-54674999D01*
%TO.N,SD4*%
X93800000Y-55100000D02*
X95500000Y-56800000D01*
X90978001Y-55100000D02*
X93800000Y-55100000D01*
X90553000Y-54674999D02*
X90978001Y-55100000D01*
X95500000Y-56800000D02*
X95500000Y-57725000D01*
X90553000Y-53900000D02*
X90553000Y-54674999D01*
%TO.N,SC5*%
X91700000Y-56600000D02*
X93512500Y-58412500D01*
X80790000Y-53913000D02*
X80790000Y-54687999D01*
X82702001Y-56600000D02*
X91700000Y-56600000D01*
X93512500Y-58412500D02*
X93812500Y-58412500D01*
X80790000Y-54687999D02*
X82702001Y-56600000D01*
%TO.N,SD5*%
X92300000Y-56100000D02*
X93925000Y-57725000D01*
X93925000Y-57725000D02*
X94500000Y-57725000D01*
X83202001Y-56100000D02*
X92300000Y-56100000D01*
X81790000Y-54687999D02*
X83202001Y-56100000D01*
X81790000Y-53913000D02*
X81790000Y-54687999D01*
%TO.N,SC6*%
X77500000Y-57800000D02*
X76600000Y-58700000D01*
X90800000Y-57800000D02*
X77500000Y-57800000D01*
X76600000Y-58700000D02*
X76200000Y-58700000D01*
X92412500Y-59412500D02*
X90800000Y-57800000D01*
X93812500Y-59412500D02*
X92412500Y-59412500D01*
%TO.N,SD6*%
X91300000Y-57200000D02*
X93012500Y-58912500D01*
X76200000Y-57700000D02*
X76551914Y-57700000D01*
X93012500Y-58912500D02*
X93812500Y-58912500D01*
X77051914Y-57200000D02*
X91300000Y-57200000D01*
X76551914Y-57700000D02*
X77051914Y-57200000D01*
D60*
%TO.N,SCL*%
X101200000Y-84700000D02*
X100775000Y-85125000D01*
D57*
X93600000Y-62000000D02*
X94000000Y-61600000D01*
D60*
X100775000Y-85125000D02*
X100225000Y-85125000D01*
X101200000Y-84200000D02*
X101200000Y-84700000D01*
D57*
X93600000Y-63100000D02*
X93600000Y-62000000D01*
X94000000Y-61600000D02*
X94500000Y-61600000D01*
%TO.N,SDA*%
X95000000Y-62700000D02*
X95000000Y-61600000D01*
D60*
X100225000Y-86475000D02*
X101025000Y-86475000D01*
X101025000Y-86475000D02*
X101400000Y-86100000D01*
D57*
X94700000Y-63000000D02*
X95000000Y-62700000D01*
D59*
%TO.N,PC10*%
X99455600Y-82500000D02*
X100937500Y-82500000D01*
X99450600Y-82495000D02*
X99455600Y-82500000D01*
X97950000Y-83750000D02*
X97950000Y-82850000D01*
X104100000Y-79237500D02*
X104200000Y-79237500D01*
X97950000Y-82850000D02*
X98305000Y-82495000D01*
X98305000Y-82495000D02*
X99450600Y-82495000D01*
X100937500Y-82500000D02*
X104200000Y-79237500D01*
D57*
%TO.N,Net-(U5-SW1)*%
X91500000Y-69870000D02*
X92830000Y-71200000D01*
D59*
X90100000Y-68100000D02*
X90100000Y-67525000D01*
X90100000Y-67525000D02*
X90825000Y-66800000D01*
D57*
X91500000Y-69500000D02*
X91500000Y-69870000D01*
X92830000Y-71200000D02*
X93200000Y-71200000D01*
%TO.N,Net-(U5-SW2)*%
X95200000Y-71200000D02*
X95787500Y-71200000D01*
X95787500Y-71200000D02*
X97000000Y-69987500D01*
%TO.N,SD0*%
X98912500Y-60912500D02*
X99200000Y-61200000D01*
X89000000Y-58600000D02*
X89900000Y-59500000D01*
X89900000Y-59500000D02*
X89900000Y-59900000D01*
X97687500Y-60912500D02*
X98912500Y-60912500D01*
X83700000Y-58600000D02*
X89000000Y-58600000D01*
D58*
X89500000Y-60300000D02*
X89900000Y-59900000D01*
X88700000Y-60300000D02*
X89500000Y-60300000D01*
D57*
%TO.N,SC0*%
X97687500Y-60412500D02*
X99787500Y-60412500D01*
X91400000Y-60100000D02*
X90900000Y-60600000D01*
X90900000Y-60600000D02*
X90900000Y-61400000D01*
X99787500Y-60412500D02*
X99800000Y-60400000D01*
X92600000Y-60100000D02*
X91400000Y-60100000D01*
D58*
X88700000Y-60700000D02*
X90200000Y-60700000D01*
X90200000Y-60700000D02*
X90900000Y-61400000D01*
D59*
%TO.N,PC11*%
X102500000Y-79225000D02*
X102500000Y-79600000D01*
X102500000Y-79600000D02*
X100200000Y-81900000D01*
X97500000Y-82500000D02*
X97500000Y-83750000D01*
X98100000Y-81900000D02*
X97500000Y-82500000D01*
X100200000Y-81900000D02*
X98100000Y-81900000D01*
%TO.N,PC12*%
X100800000Y-79250000D02*
X100800000Y-80100000D01*
X100800000Y-80100000D02*
X99500000Y-81400000D01*
X99500000Y-81400000D02*
X97600000Y-81400000D01*
X97600000Y-81400000D02*
X97050000Y-81950000D01*
X97050000Y-81950000D02*
X97050000Y-83750000D01*
D58*
%TO.N,PC13*%
X93500000Y-87825000D02*
X92700000Y-87025000D01*
X92700000Y-87025000D02*
X92700000Y-86500000D01*
X99100000Y-80700000D02*
X99100000Y-79237500D01*
X93875000Y-87825000D02*
X93500000Y-87825000D01*
D59*
%TO.N,PWM1*%
X112700000Y-65000000D02*
X114832000Y-65000000D01*
D60*
X94400000Y-90400000D02*
X94500000Y-90500000D01*
X95250000Y-90715000D02*
X95250000Y-91000000D01*
X95035000Y-90500000D02*
X95250000Y-90715000D01*
X94400000Y-88200000D02*
X94400000Y-90400000D01*
X94500000Y-90500000D02*
X95035000Y-90500000D01*
D59*
X114832000Y-65000000D02*
X114935000Y-64897000D01*
D60*
X94700000Y-87900000D02*
X94400000Y-88200000D01*
D59*
%TO.N,PWM2*%
X113300000Y-76000000D02*
X113300000Y-74152000D01*
X113300000Y-74152000D02*
X114935000Y-72517000D01*
D60*
X95525000Y-91500000D02*
X95700000Y-91325000D01*
X94200000Y-91500000D02*
X95525000Y-91500000D01*
X95700000Y-91325000D02*
X95700000Y-91000000D01*
X93900000Y-91800000D02*
X94200000Y-91500000D01*
X93900000Y-92318934D02*
X93900000Y-91800000D01*
D59*
%TO.N,PA14*%
X107300000Y-71800000D02*
X107095000Y-72005000D01*
X108875000Y-71800000D02*
X107300000Y-71800000D01*
X97400000Y-72500000D02*
X97400000Y-79200000D01*
X96150000Y-80450000D02*
X96150000Y-83750000D01*
X107095000Y-72005000D02*
X97895000Y-72005000D01*
X97895000Y-72005000D02*
X97400000Y-72500000D01*
X97400000Y-79200000D02*
X96150000Y-80450000D01*
%TO.N,PA13*%
X98000000Y-79800000D02*
X96600000Y-81200000D01*
X98000000Y-72900000D02*
X98000000Y-79800000D01*
X96600000Y-81200000D02*
X96600000Y-83750000D01*
X101300000Y-72900000D02*
X101000000Y-72600000D01*
X101000000Y-72600000D02*
X98300000Y-72600000D01*
X108875000Y-72800000D02*
X108775000Y-72900000D01*
X98300000Y-72600000D02*
X98000000Y-72900000D01*
X108775000Y-72900000D02*
X101300000Y-72900000D01*
%TO.N,CC1*%
X83300000Y-75311000D02*
X83300000Y-73600000D01*
D58*
X81395000Y-73622000D02*
X81395000Y-73406000D01*
D59*
X81163000Y-73406000D02*
X81395000Y-73406000D01*
X78555000Y-75330000D02*
X79770000Y-75330000D01*
X81395000Y-73705000D02*
X81395000Y-73406000D01*
X83106000Y-73406000D02*
X81395000Y-73406000D01*
X79770000Y-75330000D02*
X81395000Y-73705000D01*
X83300000Y-73600000D02*
X83106000Y-73406000D01*
%TO.N,USB_D+*%
X94800000Y-83750000D02*
X94800000Y-82800000D01*
X81400000Y-77801000D02*
X80929000Y-77330000D01*
X84300000Y-77200000D02*
X83900000Y-76800000D01*
X78555000Y-76330000D02*
X79929000Y-76330000D01*
X84300000Y-81900000D02*
X84300000Y-77200000D01*
X81400000Y-77200000D02*
X81400000Y-77801000D01*
X80929000Y-77330000D02*
X78555000Y-77330000D01*
X94500000Y-82500000D02*
X84900000Y-82500000D01*
X79929000Y-76330000D02*
X81400000Y-77801000D01*
X94800000Y-82800000D02*
X94500000Y-82500000D01*
X84900000Y-82500000D02*
X84300000Y-81900000D01*
X81800000Y-76800000D02*
X81400000Y-77200000D01*
X83900000Y-76800000D02*
X81800000Y-76800000D01*
%TO.N,USB_D-*%
X84008112Y-76300000D02*
X85000000Y-77291888D01*
X77500000Y-76574000D02*
X77500000Y-76088000D01*
X77757000Y-75831000D02*
X78542000Y-75831000D01*
X81779001Y-76300000D02*
X84008112Y-76300000D01*
X94135000Y-83100000D02*
X94350000Y-83315000D01*
X77500000Y-76088000D02*
X77757000Y-75831000D01*
X80881000Y-75830000D02*
X81400000Y-75311000D01*
X81400000Y-75311000D02*
X81400000Y-75920999D01*
X77757000Y-76831000D02*
X77500000Y-76574000D01*
X85000000Y-83600000D02*
X85500000Y-83100000D01*
X94350000Y-83315000D02*
X94350000Y-83750000D01*
X78542000Y-76831000D02*
X77757000Y-76831000D01*
X85500000Y-83100000D02*
X94135000Y-83100000D01*
X81400000Y-75920999D02*
X81779001Y-76300000D01*
X78555000Y-75830000D02*
X80881000Y-75830000D01*
X85000000Y-77291888D02*
X85000000Y-78900000D01*
%TO.N,CC2*%
X81395000Y-79693000D02*
X83107000Y-79693000D01*
X83300000Y-79500000D02*
X83300000Y-77801000D01*
X83107000Y-79693000D02*
X83300000Y-79500000D01*
X78555000Y-78330000D02*
X80230000Y-78330000D01*
X80230000Y-78330000D02*
X81395000Y-79495000D01*
X81395000Y-79495000D02*
X81395000Y-79693000D01*
%TO.N,PH3*%
X106100000Y-79100000D02*
X108475000Y-79100000D01*
D58*
X100225000Y-85575000D02*
X101025000Y-85575000D01*
X105000000Y-80200000D02*
X106100000Y-79100000D01*
X101800000Y-84800000D02*
X101800000Y-82500000D01*
X101800000Y-82500000D02*
X104100000Y-80200000D01*
X104100000Y-80200000D02*
X105000000Y-80200000D01*
X101025000Y-85575000D02*
X101800000Y-84800000D01*
%TO.N,User_GPIO*%
X113000000Y-67900000D02*
X111200000Y-66100000D01*
X113000000Y-71200000D02*
X113000000Y-67900000D01*
X101400000Y-89700000D02*
X101400000Y-87700000D01*
X101025000Y-90075000D02*
X101400000Y-89700000D01*
X104400000Y-80800000D02*
X110200000Y-80800000D01*
X102400000Y-86700000D02*
X102400000Y-82800000D01*
X113100000Y-77900000D02*
X113100000Y-76900000D01*
X102400000Y-82800000D02*
X104400000Y-80800000D01*
X111600000Y-72600000D02*
X113000000Y-71200000D01*
X111600000Y-75400000D02*
X111600000Y-72600000D01*
D59*
X111200000Y-59900000D02*
X111200000Y-66100000D01*
D58*
X101400000Y-87700000D02*
X102400000Y-86700000D01*
X100225000Y-90075000D02*
X101025000Y-90075000D01*
X110200000Y-80800000D02*
X113100000Y-77900000D01*
X113100000Y-76900000D02*
X111600000Y-75400000D01*
D59*
%TO.N,Net-(D5-K)*%
X87550000Y-81600000D02*
X89100000Y-81600000D01*
%TO.N,VBUS*%
X85975000Y-81600000D02*
X85975000Y-77825000D01*
X92400000Y-73487500D02*
X92387500Y-73500000D01*
D57*
X90450000Y-75937500D02*
X90450000Y-75437500D01*
D59*
X92400000Y-72400000D02*
X92400000Y-73487500D01*
X80000000Y-73800000D02*
X79620000Y-74180000D01*
X85975000Y-77825000D02*
X86000000Y-77800000D01*
D58*
X78555000Y-78980000D02*
X79080000Y-78980000D01*
X77120000Y-78020000D02*
X77120000Y-75117731D01*
D57*
X92887500Y-77375000D02*
X92887500Y-78387500D01*
X87987500Y-75937500D02*
X87100000Y-75050000D01*
D59*
X82350000Y-74150000D02*
X82350000Y-75311000D01*
X79620000Y-74180000D02*
X78555000Y-74180000D01*
D58*
X78080000Y-78980000D02*
X77120000Y-78020000D01*
D59*
X85000000Y-75750000D02*
X86000000Y-76750000D01*
D58*
X77120000Y-75117731D02*
X78057731Y-74180000D01*
X91887500Y-73500000D02*
X92887500Y-73500000D01*
X78555000Y-78980000D02*
X78080000Y-78980000D01*
D59*
X86000000Y-76750000D02*
X86000000Y-77800000D01*
D57*
X92887500Y-78387500D02*
X93100000Y-78600000D01*
D59*
X79080000Y-78980000D02*
X80000000Y-79900000D01*
X82400000Y-74100000D02*
X82350000Y-74150000D01*
D57*
X90450000Y-75937500D02*
X88800000Y-75937500D01*
D58*
X78057731Y-74180000D02*
X78555000Y-74180000D01*
D57*
X88800000Y-75937500D02*
X87987500Y-75937500D01*
D59*
%TO.N,Net-(D6-K)*%
X87550000Y-80000000D02*
X89100000Y-80000000D01*
D57*
%TO.N,Net-(U6-VPCC)*%
X88700000Y-73800000D02*
X89837500Y-74937500D01*
D59*
X87100000Y-73400000D02*
X88700000Y-73400000D01*
D57*
X89837500Y-74937500D02*
X90450000Y-74937500D01*
X88700000Y-73400000D02*
X88700000Y-73800000D01*
%TO.N,Net-(U6-PROG3)*%
X95437500Y-75937500D02*
X96300000Y-76800000D01*
X94325000Y-75937500D02*
X95437500Y-75937500D01*
X96300000Y-76800000D02*
X96300000Y-78937500D01*
%TO.N,Net-(U6-PROG1)*%
X96075000Y-75437500D02*
X96350000Y-75162500D01*
X94325000Y-75437500D02*
X96075000Y-75437500D01*
D58*
%TO.N,Net-(U6-THERM)*%
X89600000Y-76800000D02*
X89600000Y-77925000D01*
X90450000Y-76437500D02*
X89962500Y-76437500D01*
X89600000Y-77925000D02*
X88925000Y-78600000D01*
X89962500Y-76437500D02*
X89600000Y-76800000D01*
D57*
%TO.N,Net-(U6-STAT1{slash}~{LBO})*%
X92387500Y-77375000D02*
X92387500Y-79962500D01*
X92387500Y-79962500D02*
X90750000Y-81600000D01*
%TO.N,Net-(U6-STAT2)*%
X91887500Y-77375000D02*
X91887500Y-78862500D01*
X91887500Y-78862500D02*
X90750000Y-80000000D01*
%TO.N,VBAT*%
X94325000Y-74937500D02*
X94325000Y-74437500D01*
X93387500Y-73500000D02*
X93387500Y-72512500D01*
D59*
X78613000Y-66027000D02*
X82386000Y-69800000D01*
D57*
X94325000Y-74437500D02*
X93387500Y-73500000D01*
D59*
X82386000Y-69800000D02*
X82400000Y-69800000D01*
D57*
X93387500Y-72512500D02*
X93400000Y-72500000D01*
D59*
X78346000Y-66294000D02*
X78613000Y-66027000D01*
X76200000Y-66294000D02*
X78346000Y-66294000D01*
D58*
%TO.N,+1V8*%
X86205000Y-60930000D02*
X85975000Y-60700000D01*
X85700000Y-60700000D02*
X84150000Y-60700000D01*
X85975000Y-60700000D02*
X85700000Y-60700000D01*
D59*
X92100000Y-60900000D02*
X92100000Y-62700000D01*
D57*
X92600000Y-66800000D02*
X92400000Y-66800000D01*
D59*
X115200000Y-58700000D02*
X113854000Y-58700000D01*
X83790000Y-53010000D02*
X85100000Y-51700000D01*
X83790000Y-53913000D02*
X83790000Y-53010000D01*
X92100000Y-62700000D02*
X91750000Y-63050000D01*
X95200000Y-51700000D02*
X99900000Y-51700000D01*
D58*
X86200000Y-62800000D02*
X86205000Y-62795000D01*
D59*
X96300000Y-65200000D02*
X96300000Y-66600000D01*
X109317000Y-52617000D02*
X108400000Y-51700000D01*
D58*
X88700000Y-61100000D02*
X88975000Y-61100000D01*
X88975000Y-61100000D02*
X90900000Y-63025000D01*
D59*
X86950000Y-66000000D02*
X86950000Y-64400000D01*
X77900000Y-51700000D02*
X85100000Y-51700000D01*
X94153000Y-52300000D02*
X92553000Y-53900000D01*
X76200000Y-53400000D02*
X77900000Y-51700000D01*
D57*
X92400000Y-66800000D02*
X90900000Y-65300000D01*
D59*
X100935000Y-52735000D02*
X99900000Y-51700000D01*
X76200000Y-55700000D02*
X76200000Y-53400000D01*
D58*
X86205000Y-62795000D02*
X86205000Y-60930000D01*
D59*
X108400000Y-51700000D02*
X112900000Y-51700000D01*
D58*
X84150000Y-60700000D02*
X83700000Y-60250000D01*
D59*
X112900000Y-51700000D02*
X116100000Y-54900000D01*
X94900000Y-63800000D02*
X96300000Y-65200000D01*
X100935000Y-53913000D02*
X100935000Y-52735000D01*
X109317000Y-53900000D02*
X109317000Y-52617000D01*
X94000000Y-51700000D02*
X94600000Y-52300000D01*
X93200000Y-63800000D02*
X94900000Y-63800000D01*
D58*
X86200000Y-63650000D02*
X86950000Y-64400000D01*
D59*
X116100000Y-57800000D02*
X115200000Y-58700000D01*
X86950000Y-66000000D02*
X88150000Y-67200000D01*
X90900000Y-65300000D02*
X90900000Y-63050000D01*
X89000000Y-67200000D02*
X90900000Y-65300000D01*
X91750000Y-63050000D02*
X90900000Y-63050000D01*
X99900000Y-51700000D02*
X108400000Y-51700000D01*
D58*
X86200000Y-62800000D02*
X86200000Y-63650000D01*
D59*
X94600000Y-52300000D02*
X94153000Y-52300000D01*
D57*
X93700000Y-68400000D02*
X93700000Y-67900000D01*
D59*
X116100000Y-54900000D02*
X116100000Y-57800000D01*
X88150000Y-67200000D02*
X89000000Y-67200000D01*
D58*
X90900000Y-63025000D02*
X90900000Y-63050000D01*
D59*
X85100000Y-51700000D02*
X94000000Y-51700000D01*
X94600000Y-52300000D02*
X95200000Y-51700000D01*
X92100000Y-62700000D02*
X93200000Y-63800000D01*
D57*
X93700000Y-67900000D02*
X92600000Y-66800000D01*
D60*
%TO.N,+3.3V*%
X100550000Y-84675000D02*
X100605000Y-84620000D01*
D57*
X98625000Y-70112500D02*
X98625000Y-70587500D01*
D58*
X100225000Y-83750000D02*
X100225000Y-83375000D01*
D59*
X97225000Y-64025000D02*
X97600000Y-64400000D01*
X102200000Y-71400000D02*
X102825000Y-70775000D01*
D57*
X95900000Y-63400000D02*
X95500000Y-63000000D01*
X98625000Y-70587500D02*
X99437500Y-71400000D01*
X95212500Y-68412500D02*
X95200000Y-68400000D01*
X97000000Y-68412500D02*
X98517500Y-68412500D01*
X106000000Y-74800000D02*
X108875000Y-74800000D01*
D59*
X99000000Y-64400000D02*
X99400000Y-64800000D01*
D57*
X95500000Y-63000000D02*
X95500000Y-61600000D01*
D59*
X99400000Y-67530000D02*
X98612500Y-68317500D01*
D57*
X97225000Y-63400000D02*
X95900000Y-63400000D01*
D59*
X100900000Y-89385000D02*
X100900000Y-89000000D01*
D57*
X98517500Y-68412500D02*
X98612500Y-68317500D01*
X97000000Y-61600000D02*
X97000000Y-63175000D01*
D58*
X93000000Y-84700000D02*
X93475000Y-84225000D01*
X100225000Y-83375000D02*
X99950000Y-83100000D01*
D59*
X100225000Y-89625000D02*
X100660000Y-89625000D01*
D58*
X99400000Y-85200000D02*
X99400000Y-88335000D01*
X99950000Y-83100000D02*
X99200000Y-83100000D01*
D57*
X97000000Y-63175000D02*
X97225000Y-63400000D01*
X98612500Y-68317500D02*
X98612500Y-70100000D01*
D58*
X92700000Y-84700000D02*
X93000000Y-84700000D01*
D60*
X100605000Y-83805000D02*
X100550000Y-83750000D01*
D59*
X99437500Y-71400000D02*
X102200000Y-71400000D01*
X97600000Y-64400000D02*
X99000000Y-64400000D01*
D60*
X100605000Y-84620000D02*
X100605000Y-83805000D01*
D59*
X97225000Y-63400000D02*
X97225000Y-64025000D01*
D58*
X99400000Y-88335000D02*
X99790000Y-88725000D01*
D59*
X100625000Y-88725000D02*
X100225000Y-88725000D01*
D58*
X100225000Y-84675000D02*
X99925000Y-84675000D01*
D59*
X100660000Y-89625000D02*
X100900000Y-89385000D01*
D58*
X99925000Y-84675000D02*
X99400000Y-85200000D01*
X93475000Y-84225000D02*
X93875000Y-84225000D01*
D60*
X100550000Y-83750000D02*
X100225000Y-83750000D01*
D57*
X97000000Y-68412500D02*
X95212500Y-68412500D01*
D59*
X102825000Y-70775000D02*
X102825000Y-69400000D01*
D57*
X98612500Y-70100000D02*
X98625000Y-70112500D01*
D59*
X100900000Y-89000000D02*
X100625000Y-88725000D01*
D60*
X100225000Y-84675000D02*
X100550000Y-84675000D01*
D59*
X99400000Y-64800000D02*
X99400000Y-67530000D01*
D58*
X99790000Y-88725000D02*
X100225000Y-88725000D01*
%TD*%
M02*
