%TF.GenerationSoftware,KiCad,Pcbnew,7.0.10*%
%TF.CreationDate,2024-03-12T22:33:15+08:00*%
%TF.ProjectId,InertialSensor,496e6572-7469-4616-9c53-656e736f722e,rev?*%
%TF.SameCoordinates,Original*%
%TF.FileFunction,Copper,L2,Bot*%
%TF.FilePolarity,Positive*%
%FSLAX46Y46*%
G04 Gerber Fmt 4.6, Leading zero omitted, Abs format (unit mm)*
G04 Created by KiCad (PCBNEW 7.0.10) date 2024-03-12 22:33:15*
%MOMM*%
%LPD*%
G01*
G04 APERTURE LIST*
%TA.AperFunction,ViaPad*%
%ADD10C,0.500000*%
%TD*%
%TA.AperFunction,ViaPad*%
%ADD11C,0.600000*%
%TD*%
%TA.AperFunction,Conductor*%
%ADD12C,0.500000*%
%TD*%
G04 APERTURE END LIST*
D10*
%TO.N,Net-(U1-REGOUT)*%
X139800000Y-90200000D03*
X139800000Y-88400000D03*
D11*
%TO.N,GNDREF*%
X141100000Y-84100000D03*
D10*
X138600000Y-89500000D03*
X139600000Y-86800000D03*
X142300000Y-89000000D03*
%TO.N,SCL*%
X145600000Y-84900000D03*
X145700000Y-86700000D03*
%TD*%
D12*
%TO.N,Net-(U1-REGOUT)*%
X139800000Y-90200000D02*
X139800000Y-88400000D01*
%TO.N,GNDREF*%
X141100000Y-84100000D02*
X141100000Y-85300000D01*
X142300000Y-89000000D02*
X142300000Y-86500000D01*
X141100000Y-85300000D02*
X139600000Y-86800000D01*
X138600000Y-87800000D02*
X139600000Y-86800000D01*
X142300000Y-86500000D02*
X141100000Y-85300000D01*
X138600000Y-89500000D02*
X138600000Y-87800000D01*
%TO.N,SCL*%
X145600000Y-86600000D02*
X145700000Y-86700000D01*
X145600000Y-84900000D02*
X145600000Y-86600000D01*
%TD*%
%TA.AperFunction,Conductor*%
%TO.N,GNDREF*%
G36*
X146342539Y-82120185D02*
G01*
X146388294Y-82172989D01*
X146399500Y-82224500D01*
X146399500Y-84336601D01*
X146379815Y-84403640D01*
X146327011Y-84449395D01*
X146257853Y-84459339D01*
X146194297Y-84430314D01*
X146180513Y-84416310D01*
X146178828Y-84414302D01*
X146124272Y-84362831D01*
X146121685Y-84360318D01*
X146070892Y-84309525D01*
X146070890Y-84309523D01*
X146070887Y-84309521D01*
X146065446Y-84305182D01*
X146065450Y-84305176D01*
X146052708Y-84295313D01*
X146051220Y-84293909D01*
X145989410Y-84258223D01*
X145985437Y-84255829D01*
X145927695Y-84219547D01*
X145927693Y-84219546D01*
X145927690Y-84219544D01*
X145927686Y-84219542D01*
X145927685Y-84219542D01*
X145925259Y-84218693D01*
X145904236Y-84209048D01*
X145899285Y-84206190D01*
X145899282Y-84206189D01*
X145899281Y-84206188D01*
X145899278Y-84206187D01*
X145834404Y-84186764D01*
X145829018Y-84185016D01*
X145768063Y-84163688D01*
X145768059Y-84163687D01*
X145761870Y-84162989D01*
X145740203Y-84158562D01*
X145731210Y-84155870D01*
X145667215Y-84152142D01*
X145660544Y-84151572D01*
X145600004Y-84144751D01*
X145600001Y-84144751D01*
X145600000Y-84144751D01*
X145590173Y-84145858D01*
X145569088Y-84146427D01*
X145556068Y-84145668D01*
X145496525Y-84156167D01*
X145488882Y-84157270D01*
X145431936Y-84163687D01*
X145419148Y-84168162D01*
X145399738Y-84173233D01*
X145383295Y-84176132D01*
X145331120Y-84198638D01*
X145322963Y-84201819D01*
X145272318Y-84219540D01*
X145272306Y-84219546D01*
X145257739Y-84228698D01*
X145240896Y-84237555D01*
X145222198Y-84245621D01*
X145222189Y-84245626D01*
X145179534Y-84277382D01*
X145171462Y-84282911D01*
X145129106Y-84309525D01*
X145129104Y-84309526D01*
X145114360Y-84324271D01*
X145100733Y-84336048D01*
X145081468Y-84350391D01*
X145081465Y-84350393D01*
X145049625Y-84388339D01*
X145042319Y-84396312D01*
X145009527Y-84429104D01*
X145009520Y-84429113D01*
X144996479Y-84449866D01*
X144986482Y-84463591D01*
X144968698Y-84484786D01*
X144968695Y-84484790D01*
X144948101Y-84525797D01*
X144942285Y-84536116D01*
X144919544Y-84572307D01*
X144910241Y-84598893D01*
X144904014Y-84613580D01*
X144889959Y-84641567D01*
X144880215Y-84682680D01*
X144876600Y-84695033D01*
X144863688Y-84731935D01*
X144860125Y-84763547D01*
X144857564Y-84778250D01*
X144849500Y-84812280D01*
X144849500Y-84850890D01*
X144848720Y-84864774D01*
X144844751Y-84899997D01*
X144844751Y-84900000D01*
X144848720Y-84935223D01*
X144849500Y-84949108D01*
X144849500Y-86536294D01*
X144848191Y-86554263D01*
X144844710Y-86578025D01*
X144849028Y-86627368D01*
X144849500Y-86638176D01*
X144849500Y-86643711D01*
X144853098Y-86674495D01*
X144853464Y-86678083D01*
X144860000Y-86752791D01*
X144861461Y-86759867D01*
X144861403Y-86759878D01*
X144863034Y-86767237D01*
X144863092Y-86767224D01*
X144864757Y-86774249D01*
X144890400Y-86844705D01*
X144891582Y-86848107D01*
X144915182Y-86919326D01*
X144918236Y-86925874D01*
X144918182Y-86925898D01*
X144921470Y-86932688D01*
X144921521Y-86932663D01*
X144924761Y-86939114D01*
X144965979Y-87001784D01*
X144967889Y-87004782D01*
X144982020Y-87027690D01*
X145007289Y-87068658D01*
X145011766Y-87074319D01*
X145011719Y-87074355D01*
X145016483Y-87080202D01*
X145016529Y-87080164D01*
X145021167Y-87085692D01*
X145021170Y-87085696D01*
X145021173Y-87085698D01*
X145021174Y-87085700D01*
X145075732Y-87137173D01*
X145078319Y-87139686D01*
X145109523Y-87170890D01*
X145229110Y-87290477D01*
X145260686Y-87310317D01*
X145271604Y-87318031D01*
X145279027Y-87323900D01*
X145303319Y-87343109D01*
X145303321Y-87343110D01*
X145303323Y-87343111D01*
X145311194Y-87346781D01*
X145333356Y-87357116D01*
X145346924Y-87364505D01*
X145372303Y-87380452D01*
X145372305Y-87380453D01*
X145372310Y-87380456D01*
X145410938Y-87393972D01*
X145422378Y-87398627D01*
X145462327Y-87417256D01*
X145471699Y-87419191D01*
X145491210Y-87423220D01*
X145507089Y-87427616D01*
X145531941Y-87436313D01*
X145531942Y-87436313D01*
X145531945Y-87436314D01*
X145576228Y-87441303D01*
X145587412Y-87443083D01*
X145634144Y-87452733D01*
X145659965Y-87451981D01*
X145677447Y-87452707D01*
X145700000Y-87455249D01*
X145747901Y-87449851D01*
X145758166Y-87449124D01*
X145809512Y-87447631D01*
X145830937Y-87441889D01*
X145849149Y-87438442D01*
X145868059Y-87436313D01*
X145917013Y-87419182D01*
X145925848Y-87416458D01*
X145978975Y-87402223D01*
X145995295Y-87393422D01*
X146013171Y-87385535D01*
X146027690Y-87380456D01*
X146074693Y-87350920D01*
X146081763Y-87346799D01*
X146133400Y-87318959D01*
X146144512Y-87309069D01*
X146160975Y-87296706D01*
X146170890Y-87290477D01*
X146187817Y-87273550D01*
X146249139Y-87240063D01*
X146318831Y-87245046D01*
X146374765Y-87286916D01*
X146399184Y-87352380D01*
X146399500Y-87361229D01*
X146399500Y-92275500D01*
X146379815Y-92342539D01*
X146327011Y-92388294D01*
X146275500Y-92399500D01*
X138424500Y-92399500D01*
X138357461Y-92379815D01*
X138311706Y-92327011D01*
X138300500Y-92275500D01*
X138300500Y-90200002D01*
X139044751Y-90200002D01*
X139048936Y-90237145D01*
X139049489Y-90243612D01*
X139054382Y-90285480D01*
X139054440Y-90285990D01*
X139064045Y-90371244D01*
X139064758Y-90374254D01*
X139092883Y-90451527D01*
X139093402Y-90452982D01*
X139119543Y-90527688D01*
X139121202Y-90531133D01*
X139123544Y-90536689D01*
X139124766Y-90539122D01*
X139167971Y-90604811D01*
X139169365Y-90606979D01*
X139209523Y-90670890D01*
X139213864Y-90676333D01*
X139213540Y-90676590D01*
X139216487Y-90680207D01*
X139216533Y-90680169D01*
X139221174Y-90685701D01*
X139275725Y-90737166D01*
X139278314Y-90739681D01*
X139329108Y-90790476D01*
X139334553Y-90794818D01*
X139334548Y-90794823D01*
X139347293Y-90804687D01*
X139348782Y-90806092D01*
X139410588Y-90841775D01*
X139414556Y-90844166D01*
X139472310Y-90880456D01*
X139474728Y-90881302D01*
X139495773Y-90890956D01*
X139500719Y-90893812D01*
X139565628Y-90913244D01*
X139570973Y-90914979D01*
X139596361Y-90923863D01*
X139631940Y-90936313D01*
X139633789Y-90936521D01*
X139638114Y-90937008D01*
X139659800Y-90941438D01*
X139668790Y-90944130D01*
X139732776Y-90947856D01*
X139739450Y-90948425D01*
X139800000Y-90955249D01*
X139800005Y-90955249D01*
X139809815Y-90954143D01*
X139830914Y-90953572D01*
X139843935Y-90954331D01*
X139903490Y-90943829D01*
X139911094Y-90942731D01*
X139968059Y-90936313D01*
X139980841Y-90931839D01*
X140000264Y-90926765D01*
X140004782Y-90925968D01*
X140016711Y-90923865D01*
X140068890Y-90901356D01*
X140077003Y-90898190D01*
X140127690Y-90880456D01*
X140142260Y-90871300D01*
X140159105Y-90862442D01*
X140177804Y-90854377D01*
X140220472Y-90822610D01*
X140228542Y-90817085D01*
X140270882Y-90790482D01*
X140270881Y-90790482D01*
X140270890Y-90790477D01*
X140285643Y-90775722D01*
X140299262Y-90763953D01*
X140318530Y-90749610D01*
X140350386Y-90711643D01*
X140357661Y-90703704D01*
X140390477Y-90670890D01*
X140403517Y-90650134D01*
X140413518Y-90636406D01*
X140431302Y-90615214D01*
X140451909Y-90574178D01*
X140457703Y-90563897D01*
X140480456Y-90527690D01*
X140489755Y-90501111D01*
X140495988Y-90486412D01*
X140510038Y-90458437D01*
X140510038Y-90458436D01*
X140510040Y-90458433D01*
X140519784Y-90417316D01*
X140523395Y-90404973D01*
X140536313Y-90368059D01*
X140539874Y-90336447D01*
X140542433Y-90321752D01*
X140550500Y-90287721D01*
X140550500Y-90249108D01*
X140551280Y-90235223D01*
X140555249Y-90200000D01*
X140555249Y-90199997D01*
X140551280Y-90164774D01*
X140550500Y-90150890D01*
X140550500Y-88449108D01*
X140551280Y-88435223D01*
X140555249Y-88400000D01*
X140555249Y-88399997D01*
X140551060Y-88362829D01*
X140550510Y-88356377D01*
X140545644Y-88314753D01*
X140545612Y-88314483D01*
X140536313Y-88231941D01*
X140536312Y-88231938D01*
X140535953Y-88228751D01*
X140535241Y-88225747D01*
X140535241Y-88225745D01*
X140507092Y-88148405D01*
X140506603Y-88147035D01*
X140504690Y-88141567D01*
X140480456Y-88072310D01*
X140480451Y-88072303D01*
X140478803Y-88068879D01*
X140476460Y-88063319D01*
X140475235Y-88060880D01*
X140432027Y-87995187D01*
X140430633Y-87993019D01*
X140390477Y-87929110D01*
X140390476Y-87929109D01*
X140386136Y-87923667D01*
X140386459Y-87923408D01*
X140383519Y-87919799D01*
X140383474Y-87919838D01*
X140378831Y-87914305D01*
X140324272Y-87862831D01*
X140321685Y-87860318D01*
X140270892Y-87809525D01*
X140270890Y-87809523D01*
X140270887Y-87809521D01*
X140265446Y-87805182D01*
X140265450Y-87805176D01*
X140252708Y-87795313D01*
X140251220Y-87793909D01*
X140189410Y-87758223D01*
X140185437Y-87755829D01*
X140127695Y-87719547D01*
X140127693Y-87719546D01*
X140127690Y-87719544D01*
X140127686Y-87719542D01*
X140127685Y-87719542D01*
X140125259Y-87718693D01*
X140104236Y-87709048D01*
X140099285Y-87706190D01*
X140099282Y-87706189D01*
X140099281Y-87706188D01*
X140099278Y-87706187D01*
X140034404Y-87686764D01*
X140029018Y-87685016D01*
X139968063Y-87663688D01*
X139968059Y-87663687D01*
X139961870Y-87662989D01*
X139940203Y-87658562D01*
X139931210Y-87655870D01*
X139867215Y-87652142D01*
X139860544Y-87651572D01*
X139800004Y-87644751D01*
X139800001Y-87644751D01*
X139800000Y-87644751D01*
X139790173Y-87645858D01*
X139769088Y-87646427D01*
X139756068Y-87645668D01*
X139696525Y-87656167D01*
X139688882Y-87657270D01*
X139631936Y-87663687D01*
X139619148Y-87668162D01*
X139599738Y-87673233D01*
X139583295Y-87676132D01*
X139531120Y-87698638D01*
X139522963Y-87701819D01*
X139472318Y-87719540D01*
X139472306Y-87719546D01*
X139457739Y-87728698D01*
X139440896Y-87737555D01*
X139422198Y-87745621D01*
X139422189Y-87745626D01*
X139379534Y-87777382D01*
X139371462Y-87782911D01*
X139329106Y-87809525D01*
X139329104Y-87809526D01*
X139314360Y-87824271D01*
X139300733Y-87836048D01*
X139281468Y-87850391D01*
X139281465Y-87850393D01*
X139249625Y-87888339D01*
X139242319Y-87896312D01*
X139209527Y-87929104D01*
X139209520Y-87929113D01*
X139196479Y-87949866D01*
X139186482Y-87963591D01*
X139168698Y-87984786D01*
X139168695Y-87984790D01*
X139148101Y-88025797D01*
X139142285Y-88036116D01*
X139119544Y-88072307D01*
X139110241Y-88098893D01*
X139104014Y-88113580D01*
X139089959Y-88141567D01*
X139080215Y-88182680D01*
X139076600Y-88195033D01*
X139063688Y-88231935D01*
X139060125Y-88263547D01*
X139057564Y-88278250D01*
X139049500Y-88312280D01*
X139049500Y-88350890D01*
X139048720Y-88364774D01*
X139044751Y-88399997D01*
X139044751Y-88400000D01*
X139048720Y-88435223D01*
X139049500Y-88449108D01*
X139049500Y-90150890D01*
X139048720Y-90164774D01*
X139044751Y-90199997D01*
X139044751Y-90200002D01*
X138300500Y-90200002D01*
X138300500Y-82224500D01*
X138320185Y-82157461D01*
X138372989Y-82111706D01*
X138424500Y-82100500D01*
X146275500Y-82100500D01*
X146342539Y-82120185D01*
G37*
%TD.AperFunction*%
%TD*%
M02*
