%TF.GenerationSoftware,KiCad,Pcbnew,7.0.10*%
%TF.CreationDate,2024-03-12T22:33:15+08:00*%
%TF.ProjectId,InertialSensor,496e6572-7469-4616-9c53-656e736f722e,rev?*%
%TF.SameCoordinates,Original*%
%TF.FileFunction,Legend,Top*%
%TF.FilePolarity,Positive*%
%FSLAX46Y46*%
G04 Gerber Fmt 4.6, Leading zero omitted, Abs format (unit mm)*
G04 Created by KiCad (PCBNEW 7.0.10) date 2024-03-12 22:33:15*
%MOMM*%
%LPD*%
G01*
G04 APERTURE LIST*
%ADD10C,0.150000*%
%ADD11C,0.120000*%
G04 APERTURE END LIST*
D10*
X146265350Y-83239866D02*
X146232017Y-83273200D01*
X146232017Y-83273200D02*
X146132017Y-83306533D01*
X146132017Y-83306533D02*
X146065350Y-83306533D01*
X146065350Y-83306533D02*
X145965350Y-83273200D01*
X145965350Y-83273200D02*
X145898684Y-83206533D01*
X145898684Y-83206533D02*
X145865350Y-83139866D01*
X145865350Y-83139866D02*
X145832017Y-83006533D01*
X145832017Y-83006533D02*
X145832017Y-82906533D01*
X145832017Y-82906533D02*
X145865350Y-82773200D01*
X145865350Y-82773200D02*
X145898684Y-82706533D01*
X145898684Y-82706533D02*
X145965350Y-82639866D01*
X145965350Y-82639866D02*
X146065350Y-82606533D01*
X146065350Y-82606533D02*
X146132017Y-82606533D01*
X146132017Y-82606533D02*
X146232017Y-82639866D01*
X146232017Y-82639866D02*
X146265350Y-82673200D01*
X142232017Y-82639866D02*
X142165350Y-82606533D01*
X142165350Y-82606533D02*
X142065350Y-82606533D01*
X142065350Y-82606533D02*
X141965350Y-82639866D01*
X141965350Y-82639866D02*
X141898684Y-82706533D01*
X141898684Y-82706533D02*
X141865350Y-82773200D01*
X141865350Y-82773200D02*
X141832017Y-82906533D01*
X141832017Y-82906533D02*
X141832017Y-83006533D01*
X141832017Y-83006533D02*
X141865350Y-83139866D01*
X141865350Y-83139866D02*
X141898684Y-83206533D01*
X141898684Y-83206533D02*
X141965350Y-83273200D01*
X141965350Y-83273200D02*
X142065350Y-83306533D01*
X142065350Y-83306533D02*
X142132017Y-83306533D01*
X142132017Y-83306533D02*
X142232017Y-83273200D01*
X142232017Y-83273200D02*
X142265350Y-83239866D01*
X142265350Y-83239866D02*
X142265350Y-83006533D01*
X142265350Y-83006533D02*
X142132017Y-83006533D01*
X139865350Y-82606533D02*
X140098684Y-83306533D01*
X140098684Y-83306533D02*
X140332017Y-82606533D01*
X143865350Y-83306533D02*
X143865350Y-82606533D01*
X143865350Y-82606533D02*
X144032017Y-82606533D01*
X144032017Y-82606533D02*
X144132017Y-82639866D01*
X144132017Y-82639866D02*
X144198684Y-82706533D01*
X144198684Y-82706533D02*
X144232017Y-82773200D01*
X144232017Y-82773200D02*
X144265350Y-82906533D01*
X144265350Y-82906533D02*
X144265350Y-83006533D01*
X144265350Y-83006533D02*
X144232017Y-83139866D01*
X144232017Y-83139866D02*
X144198684Y-83206533D01*
X144198684Y-83206533D02*
X144132017Y-83273200D01*
X144132017Y-83273200D02*
X144032017Y-83306533D01*
X144032017Y-83306533D02*
X143865350Y-83306533D01*
X140683333Y-90486104D02*
X140650000Y-90524200D01*
X140650000Y-90524200D02*
X140550000Y-90562295D01*
X140550000Y-90562295D02*
X140483333Y-90562295D01*
X140483333Y-90562295D02*
X140383333Y-90524200D01*
X140383333Y-90524200D02*
X140316667Y-90448009D01*
X140316667Y-90448009D02*
X140283333Y-90371819D01*
X140283333Y-90371819D02*
X140250000Y-90219438D01*
X140250000Y-90219438D02*
X140250000Y-90105152D01*
X140250000Y-90105152D02*
X140283333Y-89952771D01*
X140283333Y-89952771D02*
X140316667Y-89876580D01*
X140316667Y-89876580D02*
X140383333Y-89800390D01*
X140383333Y-89800390D02*
X140483333Y-89762295D01*
X140483333Y-89762295D02*
X140550000Y-89762295D01*
X140550000Y-89762295D02*
X140650000Y-89800390D01*
X140650000Y-89800390D02*
X140683333Y-89838485D01*
X140950000Y-89838485D02*
X140983333Y-89800390D01*
X140983333Y-89800390D02*
X141050000Y-89762295D01*
X141050000Y-89762295D02*
X141216667Y-89762295D01*
X141216667Y-89762295D02*
X141283333Y-89800390D01*
X141283333Y-89800390D02*
X141316667Y-89838485D01*
X141316667Y-89838485D02*
X141350000Y-89914676D01*
X141350000Y-89914676D02*
X141350000Y-89990866D01*
X141350000Y-89990866D02*
X141316667Y-90105152D01*
X141316667Y-90105152D02*
X140916667Y-90562295D01*
X140916667Y-90562295D02*
X141350000Y-90562295D01*
X139283333Y-90491104D02*
X139250000Y-90529200D01*
X139250000Y-90529200D02*
X139150000Y-90567295D01*
X139150000Y-90567295D02*
X139083333Y-90567295D01*
X139083333Y-90567295D02*
X138983333Y-90529200D01*
X138983333Y-90529200D02*
X138916667Y-90453009D01*
X138916667Y-90453009D02*
X138883333Y-90376819D01*
X138883333Y-90376819D02*
X138850000Y-90224438D01*
X138850000Y-90224438D02*
X138850000Y-90110152D01*
X138850000Y-90110152D02*
X138883333Y-89957771D01*
X138883333Y-89957771D02*
X138916667Y-89881580D01*
X138916667Y-89881580D02*
X138983333Y-89805390D01*
X138983333Y-89805390D02*
X139083333Y-89767295D01*
X139083333Y-89767295D02*
X139150000Y-89767295D01*
X139150000Y-89767295D02*
X139250000Y-89805390D01*
X139250000Y-89805390D02*
X139283333Y-89843485D01*
X139950000Y-90567295D02*
X139550000Y-90567295D01*
X139750000Y-90567295D02*
X139750000Y-89767295D01*
X139750000Y-89767295D02*
X139683333Y-89881580D01*
X139683333Y-89881580D02*
X139616667Y-89957771D01*
X139616667Y-89957771D02*
X139550000Y-89995866D01*
X142283333Y-90486104D02*
X142250000Y-90524200D01*
X142250000Y-90524200D02*
X142150000Y-90562295D01*
X142150000Y-90562295D02*
X142083333Y-90562295D01*
X142083333Y-90562295D02*
X141983333Y-90524200D01*
X141983333Y-90524200D02*
X141916667Y-90448009D01*
X141916667Y-90448009D02*
X141883333Y-90371819D01*
X141883333Y-90371819D02*
X141850000Y-90219438D01*
X141850000Y-90219438D02*
X141850000Y-90105152D01*
X141850000Y-90105152D02*
X141883333Y-89952771D01*
X141883333Y-89952771D02*
X141916667Y-89876580D01*
X141916667Y-89876580D02*
X141983333Y-89800390D01*
X141983333Y-89800390D02*
X142083333Y-89762295D01*
X142083333Y-89762295D02*
X142150000Y-89762295D01*
X142150000Y-89762295D02*
X142250000Y-89800390D01*
X142250000Y-89800390D02*
X142283333Y-89838485D01*
X142516667Y-89762295D02*
X142950000Y-89762295D01*
X142950000Y-89762295D02*
X142716667Y-90067057D01*
X142716667Y-90067057D02*
X142816667Y-90067057D01*
X142816667Y-90067057D02*
X142883333Y-90105152D01*
X142883333Y-90105152D02*
X142916667Y-90143247D01*
X142916667Y-90143247D02*
X142950000Y-90219438D01*
X142950000Y-90219438D02*
X142950000Y-90409914D01*
X142950000Y-90409914D02*
X142916667Y-90486104D01*
X142916667Y-90486104D02*
X142883333Y-90524200D01*
X142883333Y-90524200D02*
X142816667Y-90562295D01*
X142816667Y-90562295D02*
X142616667Y-90562295D01*
X142616667Y-90562295D02*
X142550000Y-90524200D01*
X142550000Y-90524200D02*
X142516667Y-90486104D01*
X145183333Y-90562295D02*
X144950000Y-90181342D01*
X144783333Y-90562295D02*
X144783333Y-89762295D01*
X144783333Y-89762295D02*
X145050000Y-89762295D01*
X145050000Y-89762295D02*
X145116667Y-89800390D01*
X145116667Y-89800390D02*
X145150000Y-89838485D01*
X145150000Y-89838485D02*
X145183333Y-89914676D01*
X145183333Y-89914676D02*
X145183333Y-90028961D01*
X145183333Y-90028961D02*
X145150000Y-90105152D01*
X145150000Y-90105152D02*
X145116667Y-90143247D01*
X145116667Y-90143247D02*
X145050000Y-90181342D01*
X145050000Y-90181342D02*
X144783333Y-90181342D01*
X145850000Y-90562295D02*
X145450000Y-90562295D01*
X145650000Y-90562295D02*
X145650000Y-89762295D01*
X145650000Y-89762295D02*
X145583333Y-89876580D01*
X145583333Y-89876580D02*
X145516667Y-89952771D01*
X145516667Y-89952771D02*
X145450000Y-89990866D01*
X143783333Y-90562295D02*
X143550000Y-90181342D01*
X143383333Y-90562295D02*
X143383333Y-89762295D01*
X143383333Y-89762295D02*
X143650000Y-89762295D01*
X143650000Y-89762295D02*
X143716667Y-89800390D01*
X143716667Y-89800390D02*
X143750000Y-89838485D01*
X143750000Y-89838485D02*
X143783333Y-89914676D01*
X143783333Y-89914676D02*
X143783333Y-90028961D01*
X143783333Y-90028961D02*
X143750000Y-90105152D01*
X143750000Y-90105152D02*
X143716667Y-90143247D01*
X143716667Y-90143247D02*
X143650000Y-90181342D01*
X143650000Y-90181342D02*
X143383333Y-90181342D01*
X144050000Y-89838485D02*
X144083333Y-89800390D01*
X144083333Y-89800390D02*
X144150000Y-89762295D01*
X144150000Y-89762295D02*
X144316667Y-89762295D01*
X144316667Y-89762295D02*
X144383333Y-89800390D01*
X144383333Y-89800390D02*
X144416667Y-89838485D01*
X144416667Y-89838485D02*
X144450000Y-89914676D01*
X144450000Y-89914676D02*
X144450000Y-89990866D01*
X144450000Y-89990866D02*
X144416667Y-90105152D01*
X144416667Y-90105152D02*
X144016667Y-90562295D01*
X144016667Y-90562295D02*
X144450000Y-90562295D01*
D11*
%TO.C,C2*%
X141160000Y-91467164D02*
X141160000Y-91682836D01*
X140440000Y-91467164D02*
X140440000Y-91682836D01*
%TO.C,C1*%
X139760000Y-91472164D02*
X139760000Y-91687836D01*
X139040000Y-91472164D02*
X139040000Y-91687836D01*
D10*
%TO.C,U1*%
X143955000Y-85080000D02*
X143955000Y-85480000D01*
X140755000Y-85080000D02*
X141155000Y-85080000D01*
X140755000Y-85080000D02*
X140755000Y-85480000D01*
X143955000Y-88280000D02*
X143955000Y-87880000D01*
X143955000Y-88280000D02*
X143555000Y-88280000D01*
X140755000Y-88280000D02*
X140755000Y-87880000D01*
X140755000Y-88280000D02*
X141155000Y-88280000D01*
D11*
%TO.C,C3*%
X142760000Y-91467164D02*
X142760000Y-91682836D01*
X142040000Y-91467164D02*
X142040000Y-91682836D01*
%TO.C,R1*%
X144920000Y-91728641D02*
X144920000Y-91421359D01*
X145680000Y-91728641D02*
X145680000Y-91421359D01*
%TO.C,R2*%
X143520000Y-91728641D02*
X143520000Y-91421359D01*
X144280000Y-91728641D02*
X144280000Y-91421359D01*
%TD*%
M02*
