%TF.GenerationSoftware,KiCad,Pcbnew,7.0.10*%
%TF.CreationDate,2024-04-19T21:49:06+08:00*%
%TF.ProjectId,MyProject1_4,4d795072-6f6a-4656-9374-315f342e6b69,rev?*%
%TF.SameCoordinates,Original*%
%TF.FileFunction,Paste,Top*%
%TF.FilePolarity,Positive*%
%FSLAX46Y46*%
G04 Gerber Fmt 4.6, Leading zero omitted, Abs format (unit mm)*
G04 Created by KiCad (PCBNEW 7.0.10) date 2024-04-19 21:49:06*
%MOMM*%
%LPD*%
G01*
G04 APERTURE LIST*
G04 Aperture macros list*
%AMRoundRect*
0 Rectangle with rounded corners*
0 $1 Rounding radius*
0 $2 $3 $4 $5 $6 $7 $8 $9 X,Y pos of 4 corners*
0 Add a 4 corners polygon primitive as box body*
4,1,4,$2,$3,$4,$5,$6,$7,$8,$9,$2,$3,0*
0 Add four circle primitives for the rounded corners*
1,1,$1+$1,$2,$3*
1,1,$1+$1,$4,$5*
1,1,$1+$1,$6,$7*
1,1,$1+$1,$8,$9*
0 Add four rect primitives between the rounded corners*
20,1,$1+$1,$2,$3,$4,$5,0*
20,1,$1+$1,$4,$5,$6,$7,0*
20,1,$1+$1,$6,$7,$8,$9,0*
20,1,$1+$1,$8,$9,$2,$3,0*%
G04 Aperture macros list end*
%ADD10RoundRect,0.150000X-0.625000X0.150000X-0.625000X-0.150000X0.625000X-0.150000X0.625000X0.150000X0*%
%ADD11RoundRect,0.250000X-0.650000X0.350000X-0.650000X-0.350000X0.650000X-0.350000X0.650000X0.350000X0*%
%ADD12RoundRect,0.218750X-0.256250X0.218750X-0.256250X-0.218750X0.256250X-0.218750X0.256250X0.218750X0*%
%ADD13RoundRect,0.140000X0.140000X0.170000X-0.140000X0.170000X-0.140000X-0.170000X0.140000X-0.170000X0*%
%ADD14RoundRect,0.225000X-0.225000X-0.250000X0.225000X-0.250000X0.225000X0.250000X-0.225000X0.250000X0*%
%ADD15RoundRect,0.150000X0.150000X0.625000X-0.150000X0.625000X-0.150000X-0.625000X0.150000X-0.625000X0*%
%ADD16RoundRect,0.250000X0.350000X0.650000X-0.350000X0.650000X-0.350000X-0.650000X0.350000X-0.650000X0*%
%ADD17RoundRect,0.225000X-0.250000X0.225000X-0.250000X-0.225000X0.250000X-0.225000X0.250000X0.225000X0*%
%ADD18RoundRect,0.030000X0.220000X-0.580000X0.220000X0.580000X-0.220000X0.580000X-0.220000X-0.580000X0*%
%ADD19RoundRect,0.218750X0.218750X0.256250X-0.218750X0.256250X-0.218750X-0.256250X0.218750X-0.256250X0*%
%ADD20RoundRect,0.200000X-0.275000X0.200000X-0.275000X-0.200000X0.275000X-0.200000X0.275000X0.200000X0*%
%ADD21R,0.350000X0.350000*%
%ADD22R,0.350000X0.300000*%
%ADD23R,0.300000X0.350000*%
%ADD24R,0.600000X0.600000*%
%ADD25R,0.430000X0.430000*%
%ADD26RoundRect,0.212500X0.212500X0.212500X-0.212500X0.212500X-0.212500X-0.212500X0.212500X-0.212500X0*%
%ADD27RoundRect,0.062500X0.375000X0.062500X-0.375000X0.062500X-0.375000X-0.062500X0.375000X-0.062500X0*%
%ADD28RoundRect,0.062500X0.062500X0.375000X-0.062500X0.375000X-0.062500X-0.375000X0.062500X-0.375000X0*%
%ADD29R,1.150000X0.600000*%
%ADD30R,1.150000X0.300000*%
%ADD31RoundRect,0.225000X0.225000X0.250000X-0.225000X0.250000X-0.225000X-0.250000X0.225000X-0.250000X0*%
%ADD32RoundRect,0.225000X0.250000X-0.225000X0.250000X0.225000X-0.250000X0.225000X-0.250000X-0.225000X0*%
%ADD33RoundRect,0.200000X0.200000X0.275000X-0.200000X0.275000X-0.200000X-0.275000X0.200000X-0.275000X0*%
%ADD34RoundRect,0.150000X0.625000X-0.150000X0.625000X0.150000X-0.625000X0.150000X-0.625000X-0.150000X0*%
%ADD35RoundRect,0.250000X0.650000X-0.350000X0.650000X0.350000X-0.650000X0.350000X-0.650000X-0.350000X0*%
%ADD36RoundRect,0.200000X0.275000X-0.200000X0.275000X0.200000X-0.275000X0.200000X-0.275000X-0.200000X0*%
%ADD37R,1.100000X1.800000*%
%ADD38RoundRect,0.200000X-0.200000X-0.275000X0.200000X-0.275000X0.200000X0.275000X-0.200000X0.275000X0*%
%ADD39RoundRect,0.050000X-0.050000X0.225000X-0.050000X-0.225000X0.050000X-0.225000X0.050000X0.225000X0*%
%ADD40RoundRect,0.050000X-0.225000X-0.050000X0.225000X-0.050000X0.225000X0.050000X-0.225000X0.050000X0*%
%ADD41RoundRect,0.218750X-0.218750X-0.256250X0.218750X-0.256250X0.218750X0.256250X-0.218750X0.256250X0*%
%ADD42O,0.240000X0.600000*%
%ADD43R,2.400000X1.650000*%
%ADD44R,0.500000X0.250000*%
%ADD45RoundRect,0.218750X0.256250X-0.218750X0.256250X0.218750X-0.256250X0.218750X-0.256250X-0.218750X0*%
%ADD46RoundRect,0.250000X-0.255000X-0.255000X0.255000X-0.255000X0.255000X0.255000X-0.255000X0.255000X0*%
%ADD47RoundRect,0.062500X-0.350000X-0.062500X0.350000X-0.062500X0.350000X0.062500X-0.350000X0.062500X0*%
%ADD48RoundRect,0.062500X-0.062500X-0.350000X0.062500X-0.350000X0.062500X0.350000X-0.062500X0.350000X0*%
G04 APERTURE END LIST*
D10*
%TO.C,J6*%
X76200000Y-55700000D03*
X76200000Y-56700000D03*
X76200000Y-57700000D03*
X76200000Y-58700000D03*
D11*
X72325000Y-54400000D03*
X72325000Y-60000000D03*
%TD*%
D12*
%TO.C,D2*%
X102500000Y-77650000D03*
X102500000Y-79225000D03*
%TD*%
D13*
%TO.C,C12*%
X92323000Y-92310000D03*
X91363000Y-92310000D03*
%TD*%
D14*
%TO.C,C5*%
X86950000Y-64400000D03*
X88500000Y-64400000D03*
%TD*%
D15*
%TO.C,J5*%
X83790000Y-53913000D03*
X82790000Y-53913000D03*
X81790000Y-53913000D03*
X80790000Y-53913000D03*
D16*
X85090000Y-50038000D03*
X79490000Y-50038000D03*
%TD*%
D17*
%TO.C,C13*%
X78613000Y-66027000D03*
X78613000Y-67577000D03*
%TD*%
D18*
%TO.C,U2*%
X81400000Y-77801000D03*
X82350000Y-77801000D03*
X83300000Y-77801000D03*
X83300000Y-75311000D03*
X82350000Y-75311000D03*
X81400000Y-75311000D03*
%TD*%
D19*
%TO.C,D5*%
X87550000Y-81600000D03*
X85975000Y-81600000D03*
%TD*%
D13*
%TO.C,C10*%
X92323000Y-89810000D03*
X91363000Y-89810000D03*
%TD*%
D14*
%TO.C,C8*%
X98625000Y-70112500D03*
X100175000Y-70112500D03*
%TD*%
D20*
%TO.C,R8*%
X81395000Y-79693000D03*
X81395000Y-81343000D03*
%TD*%
D21*
%TO.C,U1*%
X100225000Y-91000000D03*
D22*
X100225000Y-90525000D03*
X100225000Y-90075000D03*
X100225000Y-89625000D03*
X100225000Y-89175000D03*
X100225000Y-88725000D03*
X100225000Y-88275000D03*
X100225000Y-87825000D03*
X100225000Y-87375000D03*
X100225000Y-86925000D03*
X100225000Y-86475000D03*
X100225000Y-86025000D03*
X100225000Y-85575000D03*
X100225000Y-85125000D03*
X100225000Y-84675000D03*
X100225000Y-84225000D03*
D21*
X100225000Y-83750000D03*
D23*
X99750000Y-83750000D03*
X99300000Y-83750000D03*
X98850000Y-83750000D03*
X98400000Y-83750000D03*
X97950000Y-83750000D03*
X97500000Y-83750000D03*
X97050000Y-83750000D03*
X96600000Y-83750000D03*
X96150000Y-83750000D03*
X95700000Y-83750000D03*
X95250000Y-83750000D03*
X94800000Y-83750000D03*
X94350000Y-83750000D03*
D21*
X93875000Y-83750000D03*
D22*
X93875000Y-84225000D03*
X93875000Y-84675000D03*
X93875000Y-85125000D03*
X93875000Y-85575000D03*
X93875000Y-86025000D03*
X93875000Y-86475000D03*
X93875000Y-86925000D03*
X93875000Y-87375000D03*
X93875000Y-87825000D03*
X93875000Y-88275000D03*
X93875000Y-88725000D03*
X93875000Y-89175000D03*
X93875000Y-89625000D03*
X93875000Y-90075000D03*
X93875000Y-90525000D03*
D21*
X93875000Y-91000000D03*
D23*
X94350000Y-91000000D03*
X94800000Y-91000000D03*
X95250000Y-91000000D03*
X95700000Y-91000000D03*
X96150000Y-91000000D03*
X96600000Y-91000000D03*
X97050000Y-91000000D03*
X97500000Y-91000000D03*
X97950000Y-91000000D03*
X98400000Y-91000000D03*
X98850000Y-91000000D03*
X99300000Y-91000000D03*
X99750000Y-91000000D03*
D24*
X98400000Y-89625000D03*
X98400000Y-88725000D03*
X98400000Y-87825000D03*
X98400000Y-86925000D03*
X98400000Y-86025000D03*
X98400000Y-85125000D03*
X97500000Y-85125000D03*
X96600000Y-85125000D03*
X95700000Y-85125000D03*
X95700000Y-86025000D03*
X95700000Y-86925000D03*
X95700000Y-87825000D03*
X95700000Y-88725000D03*
X95700000Y-89625000D03*
X96600000Y-89625000D03*
X97500000Y-89625000D03*
X97500000Y-88725000D03*
X97500000Y-87825000D03*
X97500000Y-86925000D03*
X97500000Y-86025000D03*
X96600000Y-86025000D03*
X96600000Y-86925000D03*
X96600000Y-87825000D03*
X96600000Y-88725000D03*
D25*
X100100000Y-93960000D03*
X94000000Y-93960000D03*
%TD*%
D26*
%TO.C,U4*%
X96275000Y-60187500D03*
X96275000Y-59137500D03*
X95225000Y-60187500D03*
X95225000Y-59137500D03*
D27*
X97687500Y-60912500D03*
X97687500Y-60412500D03*
X97687500Y-59912500D03*
X97687500Y-59412500D03*
X97687500Y-58912500D03*
X97687500Y-58412500D03*
D28*
X97000000Y-57725000D03*
X96500000Y-57725000D03*
X96000000Y-57725000D03*
X95500000Y-57725000D03*
X95000000Y-57725000D03*
X94500000Y-57725000D03*
D27*
X93812500Y-58412500D03*
X93812500Y-58912500D03*
X93812500Y-59412500D03*
X93812500Y-59912500D03*
X93812500Y-60412500D03*
X93812500Y-60912500D03*
D28*
X94500000Y-61600000D03*
X95000000Y-61600000D03*
X95500000Y-61600000D03*
X96000000Y-61600000D03*
X96500000Y-61600000D03*
X97000000Y-61600000D03*
%TD*%
D29*
%TO.C,J9*%
X78555000Y-73380000D03*
X78555000Y-74180000D03*
D30*
X78555000Y-75330000D03*
X78555000Y-76330000D03*
X78555000Y-76830000D03*
X78555000Y-77830000D03*
D29*
X78555000Y-79780000D03*
X78555000Y-78980000D03*
D30*
X78555000Y-78330000D03*
X78555000Y-77330000D03*
X78555000Y-75830000D03*
X78555000Y-74830000D03*
%TD*%
D14*
%TO.C,C6*%
X86950000Y-66000000D03*
X88500000Y-66000000D03*
%TD*%
D31*
%TO.C,C1*%
X94200000Y-65100000D03*
X92650000Y-65100000D03*
%TD*%
D15*
%TO.C,J2*%
X109317000Y-53900000D03*
X108317000Y-53900000D03*
X107317000Y-53900000D03*
X106317000Y-53900000D03*
D16*
X110617000Y-50025000D03*
X105017000Y-50025000D03*
%TD*%
D32*
%TO.C,C14*%
X85000000Y-75750000D03*
X85000000Y-74200000D03*
%TD*%
D20*
%TO.C,R3*%
X104190000Y-74500000D03*
X104190000Y-76150000D03*
%TD*%
D33*
%TO.C,R12*%
X96300000Y-78937500D03*
X94650000Y-78937500D03*
%TD*%
D19*
%TO.C,D6*%
X87550000Y-80000000D03*
X85975000Y-80000000D03*
%TD*%
D20*
%TO.C,R5*%
X100800000Y-74500000D03*
X100800000Y-76150000D03*
%TD*%
D34*
%TO.C,J1*%
X113854000Y-58700000D03*
X113854000Y-57700000D03*
X113854000Y-56700000D03*
X113854000Y-55700000D03*
D35*
X117729000Y-60000000D03*
X117729000Y-54400000D03*
%TD*%
D33*
%TO.C,R15*%
X90750000Y-81600000D03*
X89100000Y-81600000D03*
%TD*%
D36*
%TO.C,R9*%
X81395000Y-73406000D03*
X81395000Y-71756000D03*
%TD*%
D37*
%TO.C,SW1*%
X105300000Y-59900000D03*
X105300000Y-66100000D03*
X101600000Y-59900000D03*
X101600000Y-66100000D03*
%TD*%
D36*
%TO.C,R1*%
X83700000Y-60250000D03*
X83700000Y-58600000D03*
%TD*%
D12*
%TO.C,D3*%
X100800000Y-77675000D03*
X100800000Y-79250000D03*
%TD*%
D15*
%TO.C,J4*%
X92553000Y-53900000D03*
X91553000Y-53900000D03*
X90553000Y-53900000D03*
X89553000Y-53900000D03*
D16*
X93853000Y-50025000D03*
X88253000Y-50025000D03*
%TD*%
D14*
%TO.C,C3*%
X98612500Y-68317500D03*
X100162500Y-68317500D03*
%TD*%
D10*
%TO.C,J7*%
X108875000Y-71800000D03*
X108875000Y-72800000D03*
X108875000Y-73800000D03*
X108875000Y-74800000D03*
X108875000Y-75800000D03*
D11*
X111400000Y-70500000D03*
X111400000Y-77100000D03*
%TD*%
D20*
%TO.C,R4*%
X102500000Y-74500000D03*
X102500000Y-76150000D03*
%TD*%
D14*
%TO.C,C9*%
X108325000Y-68400000D03*
X109875000Y-68400000D03*
%TD*%
D38*
%TO.C,R7*%
X108475000Y-79100000D03*
X110125000Y-79100000D03*
%TD*%
D12*
%TO.C,D1*%
X104200000Y-77662500D03*
X104200000Y-79237500D03*
%TD*%
D39*
%TO.C,U3*%
X88200000Y-59800000D03*
X87800000Y-59800000D03*
X87400000Y-59800000D03*
X87000000Y-59800000D03*
X86600000Y-59800000D03*
X86200000Y-59800000D03*
D40*
X85700000Y-60300000D03*
X85700000Y-60700000D03*
X85700000Y-61100000D03*
X85700000Y-61500000D03*
X85700000Y-61900000D03*
X85700000Y-62300000D03*
D39*
X86200000Y-62800000D03*
X86600000Y-62800000D03*
X87000000Y-62800000D03*
X87400000Y-62800000D03*
X87800000Y-62800000D03*
X88200000Y-62800000D03*
D40*
X88700000Y-62300000D03*
X88700000Y-61900000D03*
X88700000Y-61500000D03*
X88700000Y-61100000D03*
X88700000Y-60700000D03*
X88700000Y-60300000D03*
%TD*%
D14*
%TO.C,C4*%
X97225000Y-63400000D03*
X98775000Y-63400000D03*
%TD*%
D36*
%TO.C,R11*%
X88700000Y-75050000D03*
X88700000Y-73400000D03*
%TD*%
D33*
%TO.C,R16*%
X90750000Y-80000000D03*
X89100000Y-80000000D03*
%TD*%
D41*
%TO.C,L1*%
X90825000Y-66800000D03*
X92400000Y-66800000D03*
%TD*%
D14*
%TO.C,C2*%
X96300000Y-66600000D03*
X97850000Y-66600000D03*
%TD*%
D37*
%TO.C,SW2*%
X111200000Y-59900000D03*
X111200000Y-66100000D03*
X107500000Y-59900000D03*
X107500000Y-66100000D03*
%TD*%
D32*
%TO.C,C7*%
X83700000Y-63350000D03*
X83700000Y-61800000D03*
%TD*%
D20*
%TO.C,R10*%
X87100000Y-73400000D03*
X87100000Y-75050000D03*
%TD*%
D42*
%TO.C,U5*%
X95200000Y-68400000D03*
X94700000Y-68400000D03*
X94200000Y-68400000D03*
X93700000Y-68400000D03*
X93200000Y-68400000D03*
X93200000Y-71200000D03*
X93700000Y-71200000D03*
X94200000Y-71200000D03*
X94700000Y-71200000D03*
X95200000Y-71200000D03*
D43*
X94200000Y-69800000D03*
D44*
X95650000Y-69550000D03*
X92750000Y-69550000D03*
X95650000Y-70050000D03*
X92750000Y-70050000D03*
%TD*%
D45*
%TO.C,L2*%
X97000000Y-69987500D03*
X97000000Y-68412500D03*
%TD*%
D36*
%TO.C,R2*%
X90900000Y-63050000D03*
X90900000Y-61400000D03*
%TD*%
D20*
%TO.C,R6*%
X99100000Y-74500000D03*
X99100000Y-76150000D03*
%TD*%
D13*
%TO.C,C11*%
X92323000Y-91070000D03*
X91363000Y-91070000D03*
%TD*%
D46*
%TO.C,U6*%
X91762500Y-74812500D03*
X91762500Y-76062500D03*
X93012500Y-74812500D03*
X93012500Y-76062500D03*
D47*
X90450000Y-74437500D03*
X90450000Y-74937500D03*
X90450000Y-75437500D03*
X90450000Y-75937500D03*
X90450000Y-76437500D03*
D48*
X91387500Y-77375000D03*
X91887500Y-77375000D03*
X92387500Y-77375000D03*
X92887500Y-77375000D03*
X93387500Y-77375000D03*
D47*
X94325000Y-76437500D03*
X94325000Y-75937500D03*
X94325000Y-75437500D03*
X94325000Y-74937500D03*
X94325000Y-74437500D03*
D48*
X93387500Y-73500000D03*
X92887500Y-73500000D03*
X92387500Y-73500000D03*
X91887500Y-73500000D03*
X91387500Y-73500000D03*
%TD*%
D12*
%TO.C,D4*%
X99100000Y-77662500D03*
X99100000Y-79237500D03*
%TD*%
D10*
%TO.C,J8*%
X76200000Y-66294000D03*
X76200000Y-67294000D03*
D11*
X72325000Y-64994000D03*
X72325000Y-68594000D03*
%TD*%
D38*
%TO.C,TH1*%
X87275000Y-78400000D03*
X88925000Y-78400000D03*
%TD*%
D15*
%TO.C,J3*%
X100935000Y-53913000D03*
X99935000Y-53913000D03*
X98935000Y-53913000D03*
X97935000Y-53913000D03*
D16*
X102235000Y-50038000D03*
X96635000Y-50038000D03*
%TD*%
D36*
%TO.C,R13*%
X96350000Y-75162500D03*
X96350000Y-73512500D03*
%TD*%
M02*
